<?xml version="1.0" encoding="UTF-8" standalone="no"?>
<svg
   version="1.1"
   width="84.351341mm"
   height="61.9814mm"
   viewBox="0 0 84.35134 61.981402"
   id="svg758"
   sodipodi:docname="pcbb.svg"
   xmlns:inkscape="http://www.inkscape.org/namespaces/inkscape"
   xmlns:sodipodi="http://sodipodi.sourceforge.net/DTD/sodipodi-0.dtd"
   xmlns="http://www.w3.org/2000/svg"
   xmlns:svg="http://www.w3.org/2000/svg">
  <defs
     id="defs762" />
  <sodipodi:namedview
     id="namedview760"
     pagecolor="#ffffff"
     bordercolor="#000000"
     borderopacity="0.25"
     inkscape:showpageshadow="2"
     inkscape:pageopacity="0.0"
     inkscape:pagecheckerboard="0"
     inkscape:deskcolor="#d1d1d1"
     inkscape:document-units="mm" />
  <title
     id="title2">SVG Image created as pcbb.svg date 2025-03-11T16:14:05+0000 </title>
  <desc
     id="desc4">Image generated by PCBNEW </desc>
  <g
     style="fill:#000000;fill-opacity:1;stroke:#000000;stroke-linecap:round;stroke-linejoin:round;stroke-opacity:1"
     id="g8"
     transform="translate(-11.905706,-16.0636)">
    <path
       style="fill:#4d7fc4;fill-opacity:1;fill-rule:evenodd;stroke:none"
       d="M 77.4942,71.45 77.4752,71.3543 77.421,71.2732 77.3399,71.219 77.2442,71.2 h -1.2 l -0.0957,0.019 -0.0811,0.0542 -0.0542,0.0811 -0.019,0.0957 v 1.5 l 0.019,0.0957 0.0542,0.0811 0.0811,0.0542 0.0957,0.019 h 1.2 l 0.0957,-0.019 0.0811,-0.0542 0.0542,-0.0811 0.019,-0.0957 z"
       id="path6" />
  </g>
  <g
     style="fill:none;stroke:#4d7fc4;stroke-width:1.7;stroke-linecap:round;stroke-linejoin:round;stroke-opacity:1"
     id="g12"
     transform="translate(-11.905706,-16.0636)">
    <path
       d="m 74.1442,72.05 v 0.3"
       id="path10" />
  </g>
  <g
     style="fill:none;stroke:#4d7fc4;stroke-width:0.9;stroke-linecap:round;stroke-linejoin:round;stroke-opacity:1"
     id="g58"
     transform="translate(-11.905706,-16.0636)">
    <path
       d="m 54.8042,71.745 v -1.1"
       id="path14" />
    <path
       d="m 54.8042,75.765 v -0.8"
       id="path16" />
    <path
       d="m 46.1642,71.745 v -1.1"
       id="path18" />
    <path
       d="m 46.1642,75.765 v -0.8"
       id="path20" />
    <path
       style="fill:#4d7fc4;fill-opacity:1;fill-rule:evenodd;stroke:none"
       d="m 63.9312,21.7886 v -4.3 h -0.7 v 4.3 z"
       id="path22" />
    <path
       style="fill:#4d7fc4;fill-opacity:1;fill-rule:evenodd;stroke:none"
       d="m 62.9312,21.7886 v -4.3 h -0.7 v 4.3 z"
       id="path24" />
    <path
       style="fill:#4d7fc4;fill-opacity:1;fill-rule:evenodd;stroke:none"
       d="m 61.9312,21.7886 v -4.3 h -0.7 v 4.3 z"
       id="path26" />
    <path
       style="fill:#4d7fc4;fill-opacity:1;fill-rule:evenodd;stroke:none"
       d="m 60.9312,21.7886 v -4.3 h -0.7 v 4.3 z"
       id="path28" />
    <path
       style="fill:#4d7fc4;fill-opacity:1;fill-rule:evenodd;stroke:none"
       d="m 59.9312,21.7886 v -4.3 h -0.7 v 4.3 z"
       id="path30" />
    <path
       style="fill:#4d7fc4;fill-opacity:1;fill-rule:evenodd;stroke:none"
       d="m 58.9312,21.7886 v -4.3 h -0.7 v 4.3 z"
       id="path32" />
    <path
       style="fill:#4d7fc4;fill-opacity:1;fill-rule:evenodd;stroke:none"
       d="m 57.9312,21.7886 v -4.3 h -0.7 v 4.3 z"
       id="path34" />
    <path
       style="fill:#4d7fc4;fill-opacity:1;fill-rule:evenodd;stroke:none"
       d="m 56.9312,21.7886 v -4.3 h -0.7 v 4.3 z"
       id="path36" />
    <path
       style="fill:#4d7fc4;fill-opacity:1;fill-rule:evenodd;stroke:none"
       d="m 55.9312,21.7886 v -4.3 h -0.7 v 4.3 z"
       id="path38" />
    <path
       style="fill:#4d7fc4;fill-opacity:1;fill-rule:evenodd;stroke:none"
       d="m 54.9312,21.7886 v -4.3 h -0.7 v 4.3 z"
       id="path40" />
    <path
       style="fill:#4d7fc4;fill-opacity:1;fill-rule:evenodd;stroke:none"
       d="m 53.9312,21.7886 v -4.3 h -0.7 v 4.3 z"
       id="path42" />
    <path
       style="fill:#4d7fc4;fill-opacity:1;fill-rule:evenodd;stroke:none"
       d="m 50.9312,21.7886 v -4.3 h -0.7 v 4.3 z"
       id="path44" />
    <path
       style="fill:#4d7fc4;fill-opacity:1;fill-rule:evenodd;stroke:none"
       d="m 49.9312,21.7886 v -4.3 h -0.7 v 4.3 z"
       id="path46" />
    <path
       style="fill:#4d7fc4;fill-opacity:1;fill-rule:evenodd;stroke:none"
       d="m 48.9312,21.7886 v -4.3 h -0.7 v 4.3 z"
       id="path48" />
    <path
       style="fill:#4d7fc4;fill-opacity:1;fill-rule:evenodd;stroke:none"
       d="m 47.9312,21.7886 v -4.3 h -0.7 v 4.3 z"
       id="path50" />
    <path
       style="fill:#4d7fc4;fill-opacity:1;fill-rule:evenodd;stroke:none"
       d="m 46.9312,21.7886 v -4.3 h -0.7 v 4.3 z"
       id="path52" />
    <path
       style="fill:#4d7fc4;fill-opacity:1;fill-rule:evenodd;stroke:none"
       d="m 45.9312,21.7886 v -4.3 h -0.7 v 4.3 z"
       id="path54" />
    <path
       style="fill:#4d7fc4;fill-opacity:1;fill-rule:evenodd;stroke:none"
       d="m 44.9312,21.7886 v -4.3 h -0.7 v 4.3 z"
       id="path56" />
  </g>
  <g
     style="fill:#4d7fc4;fill-opacity:1;stroke:none"
     id="g62"
     transform="translate(-11.905706,-16.0636)">
    <circle
       cx="52.294201"
       cy="47.200001"
       r="0.2"
       id="circle60" />
  </g>
  <g
     style="fill:#4d7fc4;fill-opacity:1;stroke:none"
     id="g66"
     transform="translate(-11.905706,-16.0636)">
    <circle
       cx="59.494202"
       cy="70.5"
       r="0.2"
       id="circle64" />
  </g>
  <g
     style="fill:#4d7fc4;fill-opacity:1;stroke:none"
     id="g70"
     transform="translate(-11.905706,-16.0636)">
    <circle
       cx="52.894199"
       cy="47.299999"
       r="0.2"
       id="circle68" />
  </g>
  <g
     style="fill:#4d7fc4;fill-opacity:1;stroke:none"
     id="g74"
     transform="translate(-11.905706,-16.0636)">
    <circle
       cx="61.794201"
       cy="69.199997"
       r="0.2"
       id="circle72" />
  </g>
  <g
     style="fill:#4d7fc4;fill-opacity:1;stroke:none"
     id="g78"
     transform="translate(-11.905706,-16.0636)">
    <circle
       cx="54.394199"
       cy="73.300003"
       r="0.2"
       id="circle76" />
  </g>
  <g
     style="fill:#4d7fc4;fill-opacity:1;stroke:none"
     id="g82"
     transform="translate(-11.905706,-16.0636)">
    <circle
       cx="52.894199"
       cy="60.599998"
       r="0.2"
       id="circle80" />
  </g>
  <g
     style="fill:#4d7fc4;fill-opacity:1;stroke:none"
     id="g86"
     transform="translate(-11.905706,-16.0636)">
    <circle
       cx="48.294201"
       cy="41.299999"
       r="0.2"
       id="circle84" />
  </g>
  <g
     style="fill:#4d7fc4;fill-opacity:1;stroke:none"
     id="g90"
     transform="translate(-11.905706,-16.0636)">
    <circle
       cx="46.5942"
       cy="69.099998"
       r="0.2"
       id="circle88" />
  </g>
  <g
     style="fill:#4d7fc4;fill-opacity:1;stroke:none"
     id="g94"
     transform="translate(-11.905706,-16.0636)">
    <circle
       cx="48.494202"
       cy="61.400002"
       r="0.2"
       id="circle92" />
  </g>
  <g
     style="fill:#4d7fc4;fill-opacity:1;stroke:none"
     id="g98"
     transform="translate(-11.905706,-16.0636)">
    <circle
       cx="66.794197"
       cy="45.099998"
       r="0.2"
       id="circle96" />
  </g>
  <g
     style="fill:#4d7fc4;fill-opacity:1;stroke:none"
     id="g102"
     transform="translate(-11.905706,-16.0636)">
    <circle
       cx="55.494202"
       cy="69.099998"
       r="0.2"
       id="circle100" />
  </g>
  <g
     style="fill:#4d7fc4;fill-opacity:1;stroke:none"
     id="g106"
     transform="translate(-11.905706,-16.0636)">
    <circle
       cx="30.294201"
       cy="41.799999"
       r="0.2"
       id="circle104" />
  </g>
  <g
     style="fill:#4d7fc4;fill-opacity:1;stroke:none"
     id="g110"
     transform="translate(-11.905706,-16.0636)">
    <circle
       cx="56.694199"
       cy="52.799999"
       r="0.2"
       id="circle108" />
  </g>
  <g
     style="fill:#4d7fc4;fill-opacity:1;stroke:none"
     id="g114"
     transform="translate(-11.905706,-16.0636)">
    <circle
       cx="55.5942"
       cy="37.599998"
       r="0.2"
       id="circle112" />
  </g>
  <g
     style="fill:#4d7fc4;fill-opacity:1;stroke:none"
     id="g118"
     transform="translate(-11.905706,-16.0636)">
    <circle
       cx="51.794201"
       cy="60.599998"
       r="0.2"
       id="circle116" />
  </g>
  <g
     style="fill:#4d7fc4;fill-opacity:1;stroke:none"
     id="g122"
     transform="translate(-11.905706,-16.0636)">
    <circle
       cx="55.394199"
       cy="73.300003"
       r="0.2"
       id="circle120" />
  </g>
  <g
     style="fill:#4d7fc4;fill-opacity:1;stroke:none"
     id="g126"
     transform="translate(-11.905706,-16.0636)">
    <circle
       cx="54.694199"
       cy="58.400002"
       r="0.2"
       id="circle124" />
  </g>
  <g
     style="fill:#4d7fc4;fill-opacity:1;stroke:none"
     id="g130"
     transform="translate(-11.905706,-16.0636)">
    <circle
       cx="43.294201"
       cy="52.900002"
       r="0.2"
       id="circle128" />
  </g>
  <g
     style="fill:#4d7fc4;fill-opacity:1;stroke:none"
     id="g134"
     transform="translate(-11.905706,-16.0636)">
    <circle
       cx="46.5942"
       cy="73.5"
       r="0.2"
       id="circle132" />
  </g>
  <g
     style="fill:#4d7fc4;fill-opacity:1;stroke:none"
     id="g138"
     transform="translate(-11.905706,-16.0636)">
    <circle
       cx="39.5942"
       cy="61.299999"
       r="0.2"
       id="circle136" />
  </g>
  <g
     style="fill:#4d7fc4;fill-opacity:1;stroke:none"
     id="g142"
     transform="translate(-11.905706,-16.0636)">
    <circle
       cx="47.794201"
       cy="40.5"
       r="0.2"
       id="circle140" />
  </g>
  <g
     style="fill:#4d7fc4;fill-opacity:1;stroke:none"
     id="g146"
     transform="translate(-11.905706,-16.0636)">
    <circle
       cx="49.394199"
       cy="60.900002"
       r="0.2"
       id="circle144" />
  </g>
  <g
     style="fill:#4d7fc4;fill-opacity:1;stroke:none"
     id="g150"
     transform="translate(-11.905706,-16.0636)">
    <circle
       cx="62.694199"
       cy="41"
       r="0.2"
       id="circle148" />
  </g>
  <g
     style="fill:#4d7fc4;fill-opacity:1;stroke:none"
     id="g154"
     transform="translate(-11.905706,-16.0636)">
    <circle
       cx="49.0942"
       cy="39.799999"
       r="0.2"
       id="circle152" />
  </g>
  <g
     style="fill:#4d7fc4;fill-opacity:1;stroke:none"
     id="g158"
     transform="translate(-11.905706,-16.0636)">
    <circle
       cx="30.294201"
       cy="51"
       r="0.2"
       id="circle156" />
  </g>
  <g
     style="fill:#4d7fc4;fill-opacity:1;stroke:none"
     id="g162"
     transform="translate(-11.905706,-16.0636)">
    <circle
       cx="44.0942"
       cy="44.900002"
       r="0.2"
       id="circle160" />
  </g>
  <g
     style="fill:#4d7fc4;fill-opacity:1;stroke:none"
     id="g166"
     transform="translate(-11.905706,-16.0636)">
    <circle
       cx="50.494202"
       cy="46.799999"
       r="0.2"
       id="circle164" />
  </g>
  <g
     style="fill:#4d7fc4;fill-opacity:1;stroke:none"
     id="g170"
     transform="translate(-11.905706,-16.0636)">
    <circle
       cx="47.794201"
       cy="74.699997"
       r="0.2"
       id="circle168" />
  </g>
  <g
     style="fill:#4d7fc4;fill-opacity:1;stroke:none"
     id="g174"
     transform="translate(-11.905706,-16.0636)">
    <circle
       cx="45.494202"
       cy="73.5"
       r="0.2"
       id="circle172" />
  </g>
  <g
     style="fill:#4d7fc4;fill-opacity:1;stroke:none"
     id="g178"
     transform="translate(-11.905706,-16.0636)">
    <circle
       cx="53.294201"
       cy="76.099998"
       r="0.2"
       id="circle176" />
  </g>
  <g
     style="fill:#4d7fc4;fill-opacity:1;stroke:none"
     id="g182"
     transform="translate(-11.905706,-16.0636)">
    <circle
       cx="30.294201"
       cy="38.799999"
       r="0.2"
       id="circle180" />
  </g>
  <g
     style="fill:#4d7fc4;fill-opacity:1;stroke:none"
     id="g186"
     transform="translate(-11.905706,-16.0636)">
    <circle
       cx="30.294201"
       cy="54"
       r="0.2"
       id="circle184" />
  </g>
  <g
     style="fill:#4d7fc4;fill-opacity:1;stroke:none"
     id="g190"
     transform="translate(-11.905706,-16.0636)">
    <circle
       cx="53.994202"
       cy="60.599998"
       r="0.2"
       id="circle188" />
  </g>
  <g
     style="fill:#4d7fc4;fill-opacity:1;stroke:none"
     id="g194"
     transform="translate(-11.905706,-16.0636)">
    <circle
       cx="30.294201"
       cy="47.900002"
       r="0.2"
       id="circle192" />
  </g>
  <g
     style="fill:#4d7fc4;fill-opacity:1;stroke:none"
     id="g198"
     transform="translate(-11.905706,-16.0636)">
    <circle
       cx="54.194199"
       cy="69.099998"
       r="0.2"
       id="circle196" />
  </g>
  <g
     style="fill:#4d7fc4;fill-opacity:1;stroke:none"
     id="g202"
     transform="translate(-11.905706,-16.0636)">
    <circle
       cx="53.294201"
       cy="74.699997"
       r="0.2"
       id="circle200" />
  </g>
  <g
     style="fill:#4d7fc4;fill-opacity:1;stroke:none"
     id="g206"
     transform="translate(-11.905706,-16.0636)">
    <circle
       cx="47.794201"
       cy="76.099998"
       r="0.2"
       id="circle204" />
  </g>
  <g
     style="fill:#4d7fc4;fill-opacity:1;stroke:none"
     id="g210"
     transform="translate(-11.905706,-16.0636)">
    <circle
       cx="30.294201"
       cy="44.799999"
       r="0.2"
       id="circle208" />
  </g>
  <g
     style="fill:#4d7fc4;fill-opacity:1;stroke:none"
     id="g214"
     transform="translate(-11.905706,-16.0636)">
    <circle
       cx="50.294201"
       cy="60.400002"
       r="0.2"
       id="circle212" />
  </g>
  <g
     style="fill:#4d7fc4;fill-opacity:1;stroke:none"
     id="g218"
     transform="translate(-11.905706,-16.0636)">
    <circle
       cx="45.394199"
       cy="69.099998"
       r="0.2"
       id="circle216" />
  </g>
  <g
     style="fill:#4d7fc4;fill-opacity:1;stroke:none"
     id="g222"
     transform="translate(-11.905706,-16.0636)">
    <circle
       cx="43.294201"
       cy="56.400002"
       r="0.2"
       id="circle220" />
  </g>
  <g
     style="fill:#4d7fc4;fill-opacity:1;stroke:none"
     id="g226"
     transform="translate(-11.905706,-16.0636)">
    <circle
       cx="45.294201"
       cy="64.599998"
       r="0.2"
       id="circle224" />
  </g>
  <g
     style="fill:#4d7fc4;fill-opacity:1;stroke:none"
     id="g230"
     transform="translate(-11.905706,-16.0636)">
    <circle
       cx="49.694199"
       cy="58.700001"
       r="0.2"
       id="circle228" />
  </g>
  <g
     style="fill:#4d7fc4;fill-opacity:1;stroke:none"
     id="g234"
     transform="translate(-11.905706,-16.0636)">
    <circle
       cx="62.394199"
       cy="43.5"
       r="0.2"
       id="circle232" />
  </g>
  <g
     style="fill:#4d7fc4;fill-opacity:1;stroke:none"
     id="g238"
     transform="translate(-11.905706,-16.0636)">
    <circle
       cx="62.394199"
       cy="45.599998"
       r="0.2"
       id="circle236" />
  </g>
  <g
     style="fill:#4d7fc4;fill-opacity:1;stroke:none"
     id="g242"
     transform="translate(-11.905706,-16.0636)">
    <circle
       cx="54.294201"
       cy="54.799999"
       r="0.2"
       id="circle240" />
  </g>
  <g
     style="fill:#4d7fc4;fill-opacity:1;stroke:none"
     id="g246"
     transform="translate(-11.905706,-16.0636)">
    <circle
       cx="61.694199"
       cy="41.200001"
       r="0.2"
       id="circle244" />
  </g>
  <g
     style="fill:none;stroke:#4d7fc4;stroke-width:0.2;stroke-linecap:round;stroke-linejoin:round;stroke-opacity:1"
     id="g260"
     transform="translate(-11.905706,-16.0636)">
    <path
       d="M 59.4942,70.5 V 61.4142"
       id="path248" />
    <path
       d="m 59.4942,61.4142 -7.2,-7.2"
       id="path250" />
    <path
       d="M 52.2942,54.2142 V 47.2"
       id="path252" />
    <path
       d="m 61.7942,63.2899 -8.9,-8.9"
       id="path254" />
    <path
       d="M 52.8942,54.3899 V 47.3"
       id="path256" />
    <path
       d="M 61.7942,69.2 V 63.2899"
       id="path258" />
  </g>
  <g
     style="fill:none;stroke:#4d7fc4;stroke-width:0.3048;stroke-linecap:round;stroke-linejoin:round;stroke-opacity:1"
     id="g272"
     transform="translate(-11.905706,-16.0636)">
    <path
       d="m 45.2942,63.1 v 1.5"
       id="path262" />
    <path
       d="m 49.6942,58.7 -4.4,4.4"
       id="path264" />
    <path
       d="M 62.2408,43.3466 62.3942,43.5"
       id="path266" />
    <path
       d="M 50.5812,29.4458 62.2408,41.1054"
       id="path268" />
    <path
       d="M 62.3942,45.6 V 43.5"
       id="path270" />
  </g>
  <g
     style="fill:none;stroke:#4d7fc4;stroke-width:0.2;stroke-linecap:round;stroke-linejoin:round;stroke-opacity:1"
     id="g276"
     transform="translate(-11.905706,-16.0636)">
    <path
       d="M 50.5812,25.9213 V 19.6386"
       id="path274" />
  </g>
  <g
     style="fill:none;stroke:#4d7fc4;stroke-width:0.3048;stroke-linecap:round;stroke-linejoin:round;stroke-opacity:1"
     id="g282"
     transform="translate(-11.905706,-16.0636)">
    <path
       d="m 62.2408,41.1054 v 2.2412"
       id="path278" />
    <path
       d="m 50.5812,19.6386 v 9.8072"
       id="path280" />
  </g>
  <g
     style="fill:none;stroke:#4d7fc4;stroke-width:0.15;stroke-linecap:round;stroke-linejoin:round;stroke-opacity:1"
     id="g290"
     transform="translate(-11.905706,-16.0636)">
    <path
       d="M 54.2942,54.8 V 48.6"
       id="path284" />
    <path
       d="m 54.2942,48.6 7.4,-7.4"
       id="path286" />
    <path
       style="fill:#4d7fc4;fill-opacity:1;fill-rule:evenodd;stroke:none"
       d="m 30.6944,16.5511 -0.0107,6e-4 -0.3983,0.0394 -0.0107,0.0015 -0.3934,0.0737 -0.0104,0.0025 -0.3856,0.1074 -0.0102,0.0033 -0.3749,0.1404 -0.0098,0.0042 -0.3614,0.1722 -0.0094,0.005 -0.3451,0.2029 -0.009,0.0058 -0.3262,0.2319 -0.0085,0.0066 -0.0626,0.0532 -0.2424,0.206 -0.0078,0.0073 -0.2815,0.2847 -0.0072,0.0079 -0.2557,0.3079 -0.0065,0.0086 -0.2282,0.3288 -0.0057,0.0091 -0.1989,0.3474 -0.0049,0.0095 -0.1681,0.3632 -0.0041,0.01 -0.1347,0.3726 -0.0016,0.0046 -9e-4,0.0027 -0.0074,0.0277 -0.003,0.0053 -0.0041,0.0128 v 2e-4 l -2e-4,3e-4 -2e-4,7e-4 -0.0045,0.0143 v 0 l -13.8378,44.17 v 0 l -0.0134,0.0429 -0.0015,0.005 -0.1019,0.3815 -0.0023,0.0102 -0.0688,0.3861 -0.0014,0.0105 -0.0359,0.3905 -5e-4,0.0105 -0.0026,0.3922 3e-4,0.0105 0.0306,0.391 0.0013,0.0104 0.0636,0.3871 0.0021,0.0103 0.0962,0.3802 0.003,0.0101 0.128,0.3707 0.0039,0.0097 0.159,0.3586 0.0046,0.0094 0.1888,0.3438 0.0054,0.009 0.2173,0.3265 0.0061,0.0085 0.2441,0.307 0.0069,0.0079 0.2693,0.2852 0.0075,0.0074 0.2943,0.263 0.0039,0.0034 0.0038,0.0031 h 10e-5 l 0.031,0.0255 v 0 l 8.817,7.2319 0.0111,0.0091 v 0 l 0.0348,0.0285 0.0042,0.0033 0.3196,0.24 0.0088,0.006 0.3368,0.2103 0.0093,0.0053 0.3536,0.1806 0.0096,0.0044 0.3678,0.1497 0.01,0.0035 0.3793,0.1176 0.0103,0.0027 0.3879,0.0846 0.0105,0.0018 0.3938,0.051 0.0106,9e-4 0.3861,0.0166 0.0131,6e-4 0.0053,1e-4 h 56.1375 0.01 v 0 h 0.0208 0.0241 v 0 l 0.0053,-1e-4 0.3994,-0.0172 0.0106,-9e-4 0.3938,-0.051 0.0104,-0.0018 0.388,-0.0846 0.0103,-0.0027 0.3792,-0.1176 0.0101,-0.0035 0.3677,-0.1497 0.0097,-0.0044 0.3536,-0.1806 0.0093,-0.0053 0.3368,-0.2103 0.0087,-0.006 0.3191,-0.2396 0.0042,-0.0032 1.0747,-0.8815 0.8513,-0.6983 0.1095,-0.0898 h -31.475 v 0.2436 h -0.65 v 0.5 h 0.65 v 0.2436 l -0.0365,0.1835 v 0 l -0.0716,0.1729 v 0 l -0.104,0.1556 v 0 l -0.1323,0.1323 v 0 l -0.1556,0.104 v 0 l -0.1729,0.0716 v 0 l -0.0271,0.0054 V 75.932 l -0.0099,0.0172 -0.0559,0.0559 -0.0684,0.0395 -0.0763,0.0204 h -0.079 L 54.6884,76.0446 54.62,76.0051 54.5641,75.9492 54.5542,75.932 v 0.7519 l -0.0271,-0.0054 v 0 l -0.1729,-0.0716 v 0 l -0.1556,-0.104 v 0 l -0.1323,-0.1323 v 0 l -0.104,-0.1556 v 0 l -0.0716,-0.1729 v 0 l -0.0365,-0.1835 v 0 -0.2436 h 0.65 v -0.5 h -0.65 v -0.2436 0 h -6.74 v 0.2436 h -0.65 v 0.5 h 0.65 v 0.2436 l -0.0365,0.1835 v 0 l -0.0716,0.1729 v 0 l -0.104,0.1556 v 0 l -0.1323,0.1323 v 0 l -0.1556,0.104 v 0 l -0.1729,0.0716 v 0 l -0.0271,0.0054 V 75.932 l -0.0099,0.0172 -0.0559,0.0559 -0.0684,0.0395 -0.0763,0.0204 h -0.079 L 46.0484,76.0446 45.98,76.0051 45.9241,75.9492 45.9142,75.932 v 0.7519 l -0.0271,-0.0054 v 0 l -0.1729,-0.0716 v 0 l -0.1556,-0.104 v 0 l -0.1323,-0.1323 v 0 l -0.104,-0.1556 v 0 l -0.0716,-0.1729 v 0 l -0.0365,-0.1835 v 0 -0.2436 h 0.65 v -0.5 h -0.65 v -0.2436 0 l 0.0365,-0.1835 v 0 l 0.0716,-0.1729 v 0 l 0.104,-0.1556 v 0 l 0.1323,-0.1323 v 0 l 0.1556,-0.104 v 0 l 0.1729,-0.0716 v 0 l 0.0271,-0.0054 v 0.7519 l 0.0099,-0.0172 0.0559,-0.0559 0.0684,-0.0395 0.0763,-0.0204 h 0.079 l 0.0763,0.0204 0.0684,0.0395 0.0559,0.0559 0.0099,0.0172 v -0.7519 0 l 0.0271,0.0054 v 0 l 0.1729,0.0716 v 0 l 0.1556,0.104 v 0 l 0.1323,0.1323 v 0 l 0.104,0.1556 v 0 l 0.0716,0.1729 v 0 l 0.0365,0.1835 h 6.74 l 0.0365,-0.1835 v 0 l 0.0716,-0.1729 v 0 l 0.104,-0.1556 v 0 l 0.1323,-0.1323 v 0 l 0.1556,-0.104 v 0 l 0.1729,-0.0716 v 0 l 0.0271,-0.0054 v 0.7519 l 0.0099,-0.0172 0.0559,-0.0559 0.0684,-0.0395 0.0763,-0.0204 h 0.079 l 0.0763,0.0204 0.0684,0.0395 0.0559,0.0559 0.0099,0.0172 v -0.7519 0 l 0.0271,0.0054 v 0 l 0.1729,0.0716 v 0 l 0.1556,0.104 v 0 l 0.1323,0.1323 v 0 l 0.104,0.1556 v 0 l 0.0716,0.1729 v 0 l 0.0365,0.1835 h 31.475 l 4.0176,-3.2953 0.1922,-0.1576 H 77.6447 v 1.563 l -0.0108,0.0682 -0.0041,0.0256 -0.0576,0.113 v 0 0 l -0.0897,0.0897 v 0 0 l -0.113,0.0576 v 0 l -0.0938,0.0149 v 0 h -1.263 l -0.0938,-0.0149 -0.113,-0.0576 -0.0898,-0.0897 -0.0575,-0.113 v 0 0 l -0.0107,-0.0672 -0.0042,-0.0266 v -0.533 h -0.499 l -0.0384,0.1933 v 0 l -0.0755,0.1821 v 0 l -0.1095,0.1639 v 0 l -0.1393,0.1393 v 0 l -0.1639,0.1095 v 0 L 74.436,73.312 v 1e-4 0 0 l -0.1933,0.0384 v 0 h -0.197 l -0.1301,-0.0259 -0.0632,-0.0125 -0.1821,-0.0755 -0.1639,-0.1095 -0.1393,-0.1393 -0.1095,-0.1639 -0.0755,-0.1821 -0.0384,-0.1933 v -0.497 0 l 0.0384,-0.1933 v 0 0 l 0.0127,-0.0305 0.0628,-0.1516 v 0 l 0.0758,-0.1136 0.0337,-0.0503 0.1393,-0.1393 v 0 l 0.1639,-0.1095 v 0 l 0.1821,-0.0755 v 0 l 0.1933,-0.0384 v 0 h 0.197 v 0 l 0.1933,0.0384 v 0 l 0.1821,0.0755 v 0 l 0.1639,0.1095 v 0 l 0.1393,0.1393 v 0 l 0.1095,0.1639 v 0 l 0.0755,0.1821 v 0 l 0.0384,0.1933 v 0 0.497 0 0 h 0.499 v -1.03 l 0.0149,-0.0938 0.0575,-0.113 h 1e-4 v 0 l 0.0897,-0.0897 v 0 -1e-4 l 0.0768,-0.0391 0.0362,-0.0184 0.0938,-0.0149 h 1.263 l 0.081,0.0128 0.0128,0.0021 0.113,0.0575 v 1e-4 0 l 0.0897,0.0897 v 0 l 0.0576,0.113 0.0149,0.0938 H 91.439 l 2.608,-2.1392 0.0101,-0.0083 0.007,-0.0057 0.0277,-0.0228 0.004,-0.0034 0.2936,-0.2623 0.0075,-0.0074 0.2686,-0.2843 0.0069,-0.0079 0.044,-0.0552 0.1996,-0.2508 0.0062,-0.0085 0.0624,-0.0937 0.1545,-0.2317 0.0054,-0.009 0.1886,-0.3426 0.0047,-0.0094 0.0022,-0.005 0.1568,-0.3524 0.0039,-0.0097 0.1282,-0.3695 0.003,-0.0101 0.0331,-0.1297 0.0635,-0.2493 0.0021,-0.0102 0.0643,-0.3859 0.0012,-0.0103 0.0314,-0.3899 4e-4,-0.0105 V 65.738 l -0.0015,-0.3487 h -1.0941 v 0.0083 0.3503 l -6e-4,0.0064 -0.0345,0.3506 v 0 l -0.07,0.3517 v 1e-4 l -0.1041,0.3432 -0.1373,0.3314 v 0 l -0.169,0.3163 h -1e-4 l -0.1992,0.2982 v 0 l -0.2276,0.2773 -0.2536,0.2536 v 0 0 l -0.2772,0.2275 v 0 1e-4 l -0.2982,0.1992 v 0 h -10e-5 v 0 0 l -0.3163,0.1691 v 0 0 l -0.3314,0.1372 -0.3432,0.1042 v 0 0 0 l -0.2206,0.0438 -0.1312,0.0261 -0.3569,0.0352 v 0 h -0.3587 v 0 L 90.5456,69.1839 90.3714,69.1493 90.1938,69.114 v 0 0 0 l -0.3433,-0.1042 -0.3313,-0.1372 -0.3164,-0.1691 -0.2982,-0.1993 -0.2772,-0.2275 -0.2537,-0.2536 -0.2275,-0.2773 -0.1993,-0.2982 -0.169,-0.3163 -0.1373,-0.3314 -0.1041,-0.3432 v 0 -1e-4 l -0.0367,-0.1843 -0.0333,-0.1674 -0.0352,-0.357 v -0.3586 l 0.0352,-0.357 0.0302,-0.1518 0.0398,-0.2 v 0 0 0 l 0.1041,-0.3432 0.1373,-0.3314 0.0071,-0.0133 0.1619,-0.303 v 0 0 l 0.1023,-0.153 0.097,-0.1452 v 0 0 l 0.2275,-0.2773 v 0 0 l 0.2537,-0.2536 0.2772,-0.2275 v -1e-4 l 0.2982,-0.1992 h 1e-4 l 0.3163,-0.1691 v 0 l 0.3313,-0.1373 0.3433,-0.1041 v 0 l 0.3518,-0.0699 v -10e-5 l 0.2699,-0.0265 0.087,-0.0086 h 0.3587 l 0.0805,0.0079 0.2764,0.0272 v 10e-5 l 0.3518,0.0699 v 0 l 0.3432,0.1041 0.3314,0.1373 v 0 l 0.3163,0.1691 h 10e-5 l 0.2982,0.1992 v 1e-4 l 0.2772,0.2275 0.2536,0.2536 0.2276,0.2773 v 0 l 0.1992,0.2982 h 1e-4 l 0.169,0.3163 v 0 l 0.1373,0.3314 0.1041,0.3432 v 0 l 0.07,0.3518 v 0 l 0.0272,0.2765 0.0079,0.0805 h 1.0941 l -2e-4,-0.0366 -4e-4,-0.0105 -0.0348,-0.3896 -0.0013,-0.0104 -0.0675,-0.3852 -0.0023,-0.0102 -0.1002,-0.38 -0.0016,-0.0054 -0.0032,-0.0102 -4.928,-15.7303 H 78.9947 v 0.1582 l -0.0306,0.1143 -0.0103,0.0384 v 0 l -0.0791,0.1369 v 0 0 l -0.1118,0.1118 v 0 0 l -0.1369,0.0791 v 0 l -0.1527,0.0409 v 0 h -0.1582 v 0 l -0.1527,-0.0409 -0.1369,-0.0791 -0.1118,-0.1118 -0.0791,-0.1369 -0.0409,-0.1527 v -0.1582 h -6.799 v 0.1582 l -0.0306,0.1143 -0.0103,0.0384 v 0 l -0.0791,0.1369 v 0 0 l -0.1118,0.1118 v 0 0 l -0.1369,0.0791 v 0 l -0.1527,0.0409 v 0 h -0.1582 v 0 l -0.1527,-0.0409 -0.1369,-0.0791 -0.1118,-0.1118 -0.0791,-0.1369 -0.0409,-0.1527 v -0.1582 l 0.0409,-0.1527 v 0 l 0.0791,-0.1369 v 0 l 0.1118,-0.1118 v 0 l 0.1369,-0.0791 v 0 0 l 0.1527,-0.0409 h 0.1582 l 0.1527,0.0409 v 0 l 0.1369,0.0791 v 0 l 0.1118,0.1118 v 0 l 0.0791,0.1369 v 0 l 0.0409,0.1527 h 6.799 l 0.0409,-0.1527 v 0 l 0.0791,-0.1369 v 0 l 0.1118,-0.1118 v 0 l 0.1369,-0.0791 v 0 0 l 0.1527,-0.0409 h 0.1582 l 0.1527,0.0409 v 0 l 0.1369,0.0791 v 0 l 0.1118,0.1118 v 0 l 0.0791,0.1369 v 0 l 0.0409,0.1527 H 90.6869 L 82.132,21.1141 h -1.2704 v 0.3587 l -0.0352,0.3569 v 0 l -0.0699,0.3518 v 0 l -0.1041,0.3433 -0.1373,0.3313 v 0 l -0.1691,0.3163 v 10e-5 l -0.1992,0.2982 h -1e-4 l -0.2275,0.2772 -0.2536,0.2537 v 0 0 l -0.2773,0.2275 v 0 0 l -0.2982,0.1993 v 0 0 0 0 l -0.3163,0.169 v 0 0 l -0.3314,0.1373 -0.3432,0.1041 v 0 0 h -10e-5 l -0.2205,0.0439 -0.1312,0.0261 -0.357,0.0352 v 0 h -0.3586 v 0 l -0.357,-0.0352 -0.1741,-0.0346 -0.1776,-0.0354 h -1e-4 v 0 0 l -0.3432,-0.1041 -0.3314,-0.1373 -0.3163,-0.169 -0.2982,-0.1993 -0.2773,-0.2275 -0.2536,-0.2537 -0.2275,-0.2772 -0.1993,-0.2982 -0.1691,-0.3164 -0.1373,-0.3313 -0.1041,-0.3433 v 0 0 l -0.0388,-0.1954 -0.0311,-0.1564 -0.0352,-0.3569 v -0.3587 l 0.0352,-0.3569 0.0261,-0.1312 0.0438,-0.2206 v 0 0 0 l 0.1041,-0.3432 0.1373,-0.3314 0.0188,-0.0352 0.1503,-0.2811 v 0 0 l 0.1022,-0.1531 0.097,-0.1451 v -10e-5 h 10e-5 L 74.503,18.839 v 0 0 l 0.2536,-0.2536 0.2773,-0.2276 v 0 l 0.2982,-0.1992 v -10e-5 l 0.3163,-0.169 v 0 l 0.3314,-0.1373 0.3432,-0.1041 h 1e-4 l 0.3517,-0.07 v 0 l 0.2699,-0.0266 0.0871,-0.0085 h 0.3586 l 0.0805,0.0079 0.2765,0.0272 v 0 l 0.3517,0.07 h 10e-5 l 0.3432,0.1041 0.3314,0.1373 v 0 l 0.3163,0.169 v 10e-5 l 0.2982,0.1992 v 0 l 0.2773,0.2276 0.2536,0.2536 0.2275,0.2772 1e-4,10e-5 0.1992,0.2981 v 10e-5 l 0.1691,0.3163 v 0 l 0.1373,0.3314 0.1041,0.3432 v 0 l 0.0699,0.3518 v 0 l 0.0352,0.3569 H 82.132 L 81.7576,19.919 v 0 l -2e-4,-7e-4 -0.0048,-0.0108 6e-4,-3e-4 -0.0031,-0.0075 v 0 l -0.0064,-0.0239 -0.0032,-0.0101 -3e-4,-0.001 -0.1347,-0.3726 -0.0041,-0.0099 -0.1681,-0.3633 -0.0049,-0.0095 -0.1989,-0.3474 -0.0057,-0.009 -0.2282,-0.3289 -0.0065,-0.0085 -0.2558,-0.308 -0.0071,-0.0079 -0.2815,-0.2847 -0.0078,-0.0072 -0.305,-0.2593 -0.0085,-0.0066 -0.3262,-0.2319 -0.009,-0.0058 -0.3451,-0.2028 -0.0094,-0.0051 -0.3614,-0.1722 -0.0098,-0.0042 -0.3749,-0.1404 -0.0102,-0.0033 -0.3856,-0.1074 -0.0104,-0.0024 -0.3934,-0.0737 -0.0106,-0.0015 -0.3984,-0.0394 -0.0107,-6e-4 -0.4002,-0.0049 -0.0107,4e-4 -0.3992,0.0298 -0.0106,0.0012 -0.395,0.0642 h -1e-4 l -0.0105,0.0022 -0.0975,0.0247 -0.2906,0.0734 -0.0103,0.0031 -0.0889,0.0309 -0.2892,0.1004 -0.0099,0.004 -0.3654,0.1635 -0.0096,0.0048 -0.1795,0.0997 -0.1703,0.0947 -0.0092,0.0057 -0.3317,0.2239 -0.0086,0.0064 -0.3111,0.2518 -0.0081,0.0071 -0.2901,0.2797 -0.0038,0.0039 -0.0309,0.0324 v 0 l -2.5715,2.703 -3.5994,3.7834 -5e-4,5e-4 -0.0285,0.0302 -0.0291,0.0309 -0.1377,0.1113 -0.0903,0.0546 -0.0612,0.037 -0.047,0.0203 -0.1155,0.0499 -0.1705,0.0475 -0.1754,0.024 v 0 0 l -0.0797,-10e-5 h -0.0088 -1.8318 l -1e-4,10e-5 H 64.739 v 0 H 64.6602 L 64.5055,24.916 64.3598,24.8557 64.2287,24.7681 64.1172,24.6566 64.0296,24.5255 63.9693,24.3798 63.9385,24.2251 v 0 l -6e-4,-0.0061 -8e-4,10e-5 -0.0028,-0.0213 -0.0036,-0.0134 V 22.4126 L 63.911,22.3456 63.8582,22.2998 63.838,22.2954 63.8312,22.2886 h -0.5 -0.1478 v 0 l -0.0596,-0.0064 -0.0075,-0.0018 -4e-4,0.0014 -0.061,-0.0043 -0.0153,0.0045 -10e-4,2e-4 -0.0596,0.0064 v 0 h -0.1478 -0.5 -0.1478 v 0 l -0.0596,-0.0064 -0.0075,-0.0018 -4e-4,0.0014 -0.061,-0.0043 -0.0153,0.0045 -10e-4,2e-4 -0.0596,0.0064 v 0 h -0.1478 -0.5 -0.1478 v 0 l -0.0596,-0.0064 -0.0075,-0.0018 -4e-4,0.0014 -0.061,-0.0043 -0.0153,0.0045 -10e-4,2e-4 -0.0596,0.0064 v 0 h -0.1478 -0.5 -0.1478 v 0 l -0.0596,-0.0064 -0.0075,-0.0018 -4e-4,0.0014 -0.061,-0.0043 -0.0153,0.0045 -10e-4,2e-4 -0.0596,0.0064 v 0 h -0.1478 -0.5 -0.1478 v 0 l -0.0596,-0.0064 -0.0075,-0.0018 -4e-4,0.0014 -0.061,-0.0043 -0.0153,0.0045 -10e-4,2e-4 -0.0596,0.0064 v 0 h -0.1478 -0.5 -0.1478 v 0 l -0.0596,-0.0064 -0.0075,-0.0018 -4e-4,0.0014 -0.061,-0.0043 -0.0153,0.0045 -10e-4,2e-4 -0.0596,0.0064 v 0 h -0.1478 v -2.4 h 0.5 v 2.4 h 0.5 v -2.4 h 0.5 v 2.4 h 0.5 v -2.4 h 0.5 v 2.4 h 0.5 v -2.4 h 0.5 v 2.4 h 0.5 v -2.4 h 0.5 v 2.4 h 0.5 v -2.4 h 0.5 v 2.4 h 0.5 v -2.526 l -0.0197,-0.067 -0.0528,-0.0458 -0.0515,-0.0112 h -0.126 v -0.126 l -0.0197,-0.067 -0.0528,-0.0458 -0.0515,-0.0112 h -5.752 l -0.067,0.0197 -0.0458,0.0528 -0.0112,0.0515 v 0.126 h -0.126 l -0.067,0.0197 -0.0458,0.0528 -0.0112,0.0515 v 2.526 h -0.1478 v 0 l -0.0596,-0.0064 v 0 l -0.1347,-0.0503 v 0 L 56.874,22.1458 v 0 l -0.0862,-0.1151 -0.004,-0.0109 -0.0419,-0.056 -0.0655,-0.0244 -0.0088,-3e-4 h -0.4512 l -0.0439,-0.0087 v 0 0 l -0.0224,-0.015 -0.0667,-0.0209 -0.0674,0.0185 -0.0037,0.0024 -0.0224,0.015 v 0 l -0.0439,0.0087 v 0 h -0.7296 l -0.0439,-0.0087 v 0 0 l -0.0224,-0.015 -0.0667,-0.0209 -0.0674,0.0185 -0.0037,0.0024 -0.0224,0.015 v 0 l -0.0439,0.0087 v 0 h -0.7296 l -0.0439,-0.0087 v 0 0 l -0.0224,-0.015 -0.0667,-0.0209 -0.0674,0.0185 -0.0037,0.0024 -0.0224,0.015 v 0 l -0.0439,0.0087 v 0 h -0.4903 l -0.067,0.0197 -0.0458,0.0528 -0.0112,0.0515 v 1.6791 l -0.0341,0.2044 -0.0673,0.196 v 0 l -0.0986,0.1823 v 0 l -0.1273,0.1635 v 0 0 0 l -0.0567,0.0522 -0.0958,0.0882 -0.1621,0.1059 -0.0114,0.0074 -0.1898,0.0833 -0.2009,0.0509 -0.0688,0.0057 -0.1377,0.0114 v 0 0 L 51.9573,24.8831 51.8747,24.8763 51.6738,24.8254 51.484,24.7421 51.3105,24.6288 51.158,24.4884 51.1288,24.4509 51.106,24.4215 l -0.0568,-0.0408 -0.0697,-0.0036 -0.0607,0.0346 -0.0323,0.0619 -0.0024,0.0241 v 4.7713 l 0.0197,0.067 0.0166,0.0206 11.5628,11.5628 v 0 l 0.0399,0.0691 v 0 l 0.0206,0.077 v 0 0.0898 0 1.9547 l 0.0197,0.067 0.0423,0.0404 0.0037,0.0021 v 0 l 0.0653,0.0653 v 0 l 0.0461,0.0799 v 0 0 0 l 0.0239,0.0892 v 0.0922 l -0.0118,0.0441 -0.0121,0.0451 v 0 l -0.0071,0.0123 -0.0166,0.062 v 1.6808 l 0.0166,0.062 0.0071,0.0123 v 0 l 0.0239,0.0892 v 0.0922 l -0.0239,0.0892 v 0 l -0.0461,0.0799 v 0 0 l -0.0653,0.0653 v 0 0 l -0.0799,0.0461 v 0 0 l -0.0892,0.0239 v 0 h -0.0922 v 0 L 62.2589,45.9266 62.179,45.8805 62.1137,45.8152 62.0676,45.7353 62.0437,45.6461 v -0.0922 l 0.0239,-0.0892 0.0012,-0.0021 0.0059,-0.0102 0.0166,-0.062 v -1.6808 l -0.0016,-0.0082 9e-4,-0.0051 -0.0049,-0.0151 -0.0038,-0.0191 -0.0032,-0.0075 -0.0111,-0.0193 -0.0058,-0.0216 -0.0031,-0.0075 -0.0129,-0.016 -0.014,-0.0242 -0.0334,-0.0334 -0.0399,-0.0691 -0.0206,-0.077 v -1.7273 l -0.0052,-0.0177 -2e-4,-0.0184 -0.0094,-0.0144 -0.0049,-0.0166 -0.0139,-0.012 -0.0101,-0.0154 -0.0158,-0.007 -0.013,-0.0113 -0.0182,-0.0026 -0.0168,-0.0075 -0.0244,0.0015 -0.0097,-0.0014 -0.0012,2e-4 -0.0067,10e-4 -0.0481,0.0129 h -0.0358 l -0.0093,0.0014 -0.0235,0.011 -0.0248,0.0073 -0.0128,0.0103 -0.0022,0.0011 -0.001,0.0015 -0.0046,0.0037 -7.0703,7.0703 -0.0335,0.0613 -0.0028,0.0264 v 5.7337 l 0.0197,0.067 0.0166,0.0206 0.0187,0.0187 v 0 l 0.0461,0.0799 v 0 0 0 l 0.0239,0.0892 v 0.0922 l -0.0163,0.0609 -0.0076,0.0283 v 0 l -0.0461,0.0799 v 0 0 l -0.0653,0.0653 v 0 0 l -0.0799,0.0461 v 0 0 l -0.0892,0.0239 v 0 h -0.0319 l -0.0671,0.0197 -0.0457,0.0528 -0.01,0.0691 0.0291,0.0636 0.006,0.0065 6.1195,6.1195 1.6133,1.6133 v 0 0 l 0.0531,0.0531 0.0381,0.092 v 5.6635 l 0.0197,0.0671 0.0059,0.0084 0.0044,0.0057 0.0461,0.0799 v 0 0 0 l 0.0239,0.0892 v 0.0922 l -0.0084,0.0312 -0.0155,0.058 v 0 l -0.0461,0.0799 v 0 0 l -0.0653,0.0653 v 0 0 l -0.0799,0.0461 v 0 0 l -0.0892,0.0239 v 0 h -0.0922 v 0 L 61.6589,69.5266 61.579,69.4805 61.5137,69.4152 61.4676,69.3353 61.4437,69.2461 v -0.0922 l 0.0239,-0.0892 0.0317,-0.0549 0.0144,-0.025 0.0044,-0.0057 0.0252,-0.0651 4e-4,-0.0104 v -5.4585 l -0.0197,-0.0671 -0.0166,-0.0206 -1.551,-1.551 -0.0613,-0.0335 -0.0697,0.005 -0.056,0.0419 -0.0244,0.0654 -3e-4,0.0089 v 8.3095 l 0.0197,0.0671 0.0059,0.0084 0.0044,0.0057 0.0461,0.0799 v 0 0 0 l 0.0239,0.0892 v 0.0922 l -0.0159,0.0594 -0.008,0.0298 v 0 l -0.0461,0.0799 v 0 0 l -0.0653,0.0653 v 0 0 l -0.0799,0.0461 v 0 0 l -0.0892,0.0239 v 0 h -0.0922 v 0 L 59.3589,70.8266 59.279,70.7805 59.2137,70.7152 59.1676,70.6353 59.1451,70.5514 h -3.3909 v 0.3936 h -0.65 v 0.5 h 0.65 v 0.3936 l -0.0365,0.1835 v 0 l -0.0716,0.1729 v 0 l -0.104,0.1556 v 0 l -0.1323,0.1323 v 0 l -0.1556,0.104 v 0 l -0.1729,0.0716 v 0 l -0.0271,0.0054 V 71.912 l -0.0099,0.0172 -0.0559,0.0559 -0.0684,0.0395 -0.0763,0.0204 h -0.079 L 54.6884,72.0246 54.62,71.9851 54.5641,71.9292 54.5542,71.912 v 0.7519 l -0.0271,-0.0054 v 0 l -0.1729,-0.0716 v 0 l -0.1556,-0.104 v 0 l -0.1323,-0.1323 v 0 l -0.104,-0.1556 v 0 l -0.0716,-0.1729 v 0 l -0.004,-0.0204 -0.0324,-0.0619 -0.0607,-0.0346 -0.0698,0.0038 -0.0464,0.0292 -0.0573,0.0573 -0.0913,0.0527 -0.1019,0.0273 v 0 h -0.1054 v 0 L 53.2196,72.0482 53.1283,71.9955 53.0537,71.9209 53.001,71.8296 52.9737,71.7277 v -0.1054 h -4.979 v 0.1054 l -0.0273,0.1019 -0.0527,0.0913 -0.0746,0.0746 -0.0913,0.0527 -0.1019,0.0273 v 0 h -0.1054 v 0 l -0.1019,-0.0273 -0.0913,-0.0527 -0.0573,-0.0573 -0.0613,-0.0334 -0.0697,0.0049 -0.0559,0.0419 -0.0224,0.0501 -0.004,0.0204 v 0 l -0.0716,0.1729 v 0 l -0.104,0.1556 v 0 l -0.1323,0.1323 v 0 l -0.1556,0.104 v 0 l -0.1729,0.0716 v 0 l -0.0271,0.0054 V 71.912 l -0.0099,0.0172 -0.0559,0.0559 -0.0684,0.0395 -0.0763,0.0204 h -0.079 L 46.0484,72.0246 45.98,71.9851 45.9241,71.9292 45.9142,71.912 v 0.7519 l -0.0271,-0.0054 v 0 l -0.1729,-0.0716 v 0 l -0.1556,-0.104 v 0 l -0.1323,-0.1323 v 0 l -0.104,-0.1556 v 0 l -0.0716,-0.1729 v 0 l -0.0365,-0.1835 v 0 -0.3936 h 0.65 v -0.5 h -0.65 v -0.3936 0 l 0.0365,-0.1835 v 0 l 0.0716,-0.1729 v 0 l 0.104,-0.1556 v 0 l 0.1323,-0.1323 v 0 l 0.1556,-0.104 v 0 l 0.1729,-0.0716 v 0 l 0.0271,-0.0054 v 0.7519 l 0.0099,-0.0172 0.0559,-0.0559 0.0684,-0.0395 0.0763,-0.0204 h 0.079 l 0.0763,0.0204 0.0684,0.0395 0.0559,0.0559 0.0099,0.0172 v -0.7519 0 l 0.0271,0.0054 v 0 l 0.1729,0.0716 v 0 l 0.1556,0.104 v 0 l 0.1323,0.1323 v 0 l 0.104,0.1556 v 0 l 0.0716,0.1729 v 0 l 0.0365,0.1835 v 0.3936 h -0.65 v 0.5 h 0.6632 l 0.0322,0.0176 0.0697,-0.005 0.0444,-0.0285 0.0746,-0.0746 v 0 l 0.0913,-0.0527 0.1019,-0.0273 h 0.1054 l 0.1019,0.0273 v 0 l 0.0913,0.0527 0.0746,0.0746 0.0527,0.0913 v 0 l 0.0273,0.1019 h 4.979 l 0.0273,-0.1019 0.0527,-0.0913 0.0746,-0.0746 0.0913,-0.0527 0.1019,-0.0273 h 0.1054 l 0.1019,0.0273 v 0 l 0.0913,0.0527 0.0746,0.0746 0.0613,0.0335 0.0697,-0.005 0.0197,-0.0126 h 0.6588 v -0.5 h -0.65 v -0.3936 0 l 0.0365,-0.1835 v 0 l 0.0716,-0.1729 v 0 l 0.104,-0.1556 v 0 l 0.1323,-0.1323 v 0 l 0.1556,-0.104 v 0 l 0.1729,-0.0716 v 0 l 0.0271,-0.0054 v 0.7519 l 0.0099,-0.0172 0.0559,-0.0559 0.0684,-0.0395 0.0763,-0.0204 h 0.079 l 0.0763,0.0204 0.0684,0.0395 0.0559,0.0559 0.0099,0.0172 v -0.7519 0 l 0.0271,0.0054 v 0 l 0.1729,0.0716 v 0 l 0.1556,0.104 v 0 l 0.1323,0.1323 v 0 l 0.104,0.1556 v 0 l 0.0716,0.1729 v 0 l 0.0365,0.1835 h 3.3909 l -0.0014,-0.0053 v -0.0922 l 0.0239,-0.0892 v 0 l 0.0461,-0.0799 0.0044,-0.0057 0.0252,-0.0651 4e-4,-0.0104 V 65.3893 H 20.7314 v 0.0083 0.3503 l -6e-4,0.0064 -0.0346,0.3506 v 0 l -0.0699,0.3517 v 1e-4 l -0.1042,0.3432 -0.1372,0.3314 v 0 l -0.1691,0.3163 v 0 l -0.1992,0.2982 h -10e-5 l -0.2275,0.2773 -0.2536,0.2536 v 0 0 l -0.2773,0.2275 v 0 1e-4 l -0.2982,0.1992 v 0 0 0 0 l -0.3163,0.1691 v 0 0 l -0.3314,0.1372 -0.3432,0.1042 v 0 0 h -10e-5 l -0.2205,0.0438 -0.1312,0.0261 -0.357,0.0352 v 0 h -0.3586 v 0 l -0.357,-0.0352 -0.1741,-0.0346 -0.1777,-0.0353 v 0 0 0 L 15.8496,69.0098 15.5182,68.8726 15.2019,68.7035 14.9037,68.5042 14.6264,68.2767 14.3728,68.0231 14.1452,67.7458 13.946,67.4476 13.7769,67.1313 13.6396,66.7999 13.5355,66.4567 v 0 -1e-4 l -0.0366,-0.1843 -0.0333,-0.1674 -0.0352,-0.357 v -0.3586 l 0.0352,-0.357 0.0302,-0.1518 0.0397,-0.2 v 0 0 0 l 0.1041,-0.3432 0.1373,-0.3314 0.0071,-0.0133 0.162,-0.303 v 0 0 l 0.1022,-0.153 0.097,-0.1452 v 0 0 l 0.2276,-0.2773 v 0 0 l 0.2536,-0.2536 0.2773,-0.2275 v -1e-4 l 0.2982,-0.1992 v 0 l 0.3163,-0.1691 v 0 l 0.3314,-0.1373 0.3432,-0.1041 v 0 l 0.3518,-0.0699 v -10e-5 l 0.2699,-0.0265 0.0871,-0.0086 h 0.3586 l 0.0805,0.0079 0.2765,0.0272 v 10e-5 l 0.3517,0.0699 h 10e-5 l 0.3432,0.1041 0.3314,0.1373 v 0 l 0.3163,0.1691 v 0 l 0.2982,0.1992 v 1e-4 l 0.2773,0.2275 0.2536,0.2536 0.2275,0.2773 h 10e-5 l 0.1992,0.2982 v 0 l 0.1691,0.3163 v 0 l 0.1372,0.3314 0.1042,0.3432 v 0 l 0.0699,0.3518 v 0 l 0.0273,0.2765 0.0079,0.0805 h 38.5123 v -3.82 l -0.0197,-0.067 -0.0166,-0.0206 -2.8278,-2.8278 h -6.3349 v 0.0922 l -0.0239,0.0892 v 0 l -0.0461,0.0799 v 0 0 l -0.0653,0.0653 v 0 0 l -0.0799,0.0461 v 0 0 0 l -0.0137,0.0037 -0.0556,0.0321 -4.1268,4.1267 -0.0335,0.0614 -0.0028,0.0263 v 1.1136 l 0.0166,0.062 0.0071,0.0123 v 0 l 0.0239,0.0892 v 0.0922 l -0.0239,0.0892 v 0 l -0.0461,0.0799 v 0 0 l -0.0653,0.0653 v 0 0 l -0.0799,0.0461 v 0 0 l -0.0892,0.0239 v 0 h -0.0922 v 0 L 45.1589,64.9266 45.079,64.8805 45.0137,64.8152 44.9676,64.7353 44.9437,64.6461 v -0.0922 l 0.0239,-0.0892 0.0012,-0.0021 0.0059,-0.0102 0.0166,-0.062 v -1.2405 0 -0.0898 0 l 0.0206,-0.077 0.0399,-0.0691 0.0564,-0.0564 v 0 l 0.0043,-0.0043 h 1e-4 l 4.2192,-4.2193 0.0321,-0.0556 0.0037,-0.0137 v 0 l 0.0461,-0.0799 v 0 0 l 0.0653,-0.0653 v 0 0 l 0.0799,-0.0461 v 0 0 0 l 0.0892,-0.0239 h 0.0922 l 0.0892,0.0239 v 0 0 0 l 0.0799,0.0461 v 0 l 0.0653,0.0653 v 0 l 0.0461,0.0799 v 0 0 0 l 0.0123,0.0458 0.0116,0.0434 h 6.3349 l -4.2273,-4.2273 v 0 L 52.0818,54.3561 52.066,54.318 52.0437,54.264 v -0.0996 -0.01 0 -6.658 L 52.024,47.4293 52.0181,47.4209 52.0137,47.4152 v 0 l -0.0461,-0.0799 -0.0239,-0.0892 v -0.0922 l 0.0239,-0.0892 v 0 l 0.0461,-0.0799 v 0 0 l 0.0653,-0.0653 v 0 0 l 0.0799,-0.0461 v 0 0 0 l 0.0892,-0.0239 h 0.0922 l 0.0892,0.0239 v 0 0 0 l 0.0799,0.0461 v 0 l 0.0582,0.0582 0.0613,0.0335 0.0697,-0.005 0.0187,-0.0088 0.0416,-0.024 v 0 l 0.0892,-0.0239 h 0.0922 l 0.0892,0.0239 v 0 0 0 l 0.0799,0.0461 v 0 l 0.0653,0.0653 v 0 l 0.0461,0.0799 v 0 0 0 l 0.0239,0.0892 v 0.0922 l -0.0223,0.0832 -0.0016,0.006 v 0 l -0.0461,0.0799 v 0 0 0 l -0.0044,0.0057 -0.0252,0.0651 -4e-4,0.0104 v 6.6384 l 0.0197,0.0671 0.0166,0.0206 0.551,0.551 0.0613,0.0335 0.0697,-0.005 0.056,-0.0419 0.0244,-0.0654 3e-4,-0.0089 v -0.0319 0 l 0.0239,-0.0892 v 0 l 0.0461,-0.0799 v 0 0 l 0.0187,-0.0187 0.0335,-0.0613 0.0028,-0.0263 v -5.9234 0 l 0.0343,-0.0828 7.2044,-7.2044 0.0335,-0.0613 0.0028,-0.0264 v -0.0263 0 l 0.0239,-0.0892 0.044,-0.0762 0.0021,-0.0037 v 0 0 l 0.0514,-0.0514 0.0335,-0.0613 -0.005,-0.0697 -0.0285,-0.0443 -11.0597,-11.0597 v 0 l -0.0102,-0.0102 v 0 l -0.0564,-0.0564 -0.0399,-0.0691 -0.0206,-0.077 v -7.4325 l -0.0197,-0.0671 -0.0512,-0.045 -0.0138,-0.0065 -0.0211,-0.0042 -0.03,-0.02 -0.0082,-0.0039 -0.0259,-0.0041 -0.025,-0.0079 -0.0089,0.0025 -0.0092,-0.0015 -0.024,0.0106 -0.0253,0.0069 -0.0037,0.0024 -0.0224,0.015 v 0 l -0.0439,0.0087 v 0 h -0.7296 l -0.0439,-0.0087 v 0 0 l -0.0224,-0.015 -0.0667,-0.0209 -0.0674,0.0185 -0.0037,0.0024 -0.0224,0.015 v 0 l -0.0439,0.0087 v 0 h -0.7296 l -0.0439,-0.0087 v 0 0 l -0.0224,-0.015 -0.0667,-0.0209 -0.0674,0.0185 -0.0037,0.0024 -0.0224,0.015 v 0 l -0.0439,0.0087 v 0 h -0.7296 l -0.0439,-0.0087 v 0 0 l -0.0224,-0.015 -0.0667,-0.0209 -0.0674,0.0185 -0.0037,0.0024 -0.0224,0.015 v 0 l -0.0439,0.0087 v 0 h -0.7296 l -0.0439,-0.0087 v 0 0 l -0.0224,-0.015 -0.0667,-0.0209 -0.0674,0.0185 -0.0037,0.0024 -0.0224,0.015 v 0 l -0.0439,0.0087 v 0 h -0.7296 l -0.0439,-0.0087 v 0 0 l -0.0224,-0.015 -0.0667,-0.0209 -0.0674,0.0185 -0.0037,0.0024 -0.0224,0.015 v 0 l -0.0439,0.0087 v 0 h -0.5903 l -0.067,0.0197 -0.0458,0.0528 -0.0112,0.0515 v 2.1213 l -0.0032,0.0121 -0.003,0.0226 -7e-4,-10e-5 -6e-4,0.0061 v 0 0 l -0.0125,0.063 -0.0177,0.089 -5e-4,0.0027 -0.0604,0.1456 v 0 0 l -0.0876,0.1311 v 0 L 43.934,24.768 v 0 l -0.1059,0.0708 -0.0252,0.0168 -0.1457,0.0604 -0.1546,0.0307 h -0.0393 v 0 h -0.0396 -0.0476 v 0 h -0.0099 -10e-5 -1.768 -0.0062 l -2e-4,10e-5 h -0.0512 v 0 l -0.0223,-10e-5 h -0.0172 -0.0083 -3e-4 -0.0398 v 0 0 l -0.0512,-0.007 -0.1231,-0.0167 -0.107,-0.0296 -0.0625,-0.0173 -0.0019,-8e-4 -0.1598,-0.0686 -0.1508,-0.0904 -0.1373,-0.11 -0.0333,-0.0349 -1e-4,-10e-5 -0.0431,-0.0453 -0.017,-0.0178 v 0 l -0.0164,-0.0173 v 0 l -3.2125,-3.3768 h -2.7345 v 0.3587 l -0.0351,0.3569 v 0 l -0.07,0.3518 v 0 l -0.1041,0.3433 -0.1373,0.3313 v 0 l -0.169,0.3163 -10e-5,10e-5 -0.1992,0.2982 v 0 l -0.2276,0.2772 -0.2536,0.2537 v 0 0 l -0.2772,0.2275 v 0 h -1e-4 l -0.2981,0.1993 h -1e-4 v 0 0 0 l -0.3163,0.169 v 0 0 l -0.3314,0.1373 -0.3432,0.1041 v 0 0 0 l -0.2206,0.0439 -0.1312,0.0261 -0.3569,0.0352 v 0 h -0.3587 v 0 l -0.3569,-0.0352 -0.1742,-0.0346 -0.1776,-0.0354 v 0 0 0 L 29.7203,24.7347 29.389,24.5974 29.0726,24.4284 28.7744,24.2291 28.4972,24.0016 28.2435,23.7479 28.016,23.4707 27.8167,23.1725 27.6476,22.8561 27.5104,22.5248 27.4063,22.1815 v 0 0 l -0.0389,-0.1954 -0.0311,-0.1564 -0.0352,-0.3569 v -0.3587 l 0.0352,-0.3569 0.0261,-0.1312 0.0439,-0.2206 v 0 0 0 l 0.1041,-0.3432 0.1372,-0.3314 0.0189,-0.0352 0.1502,-0.2811 v 0 0 l 0.1023,-0.1531 0.097,-0.1451 v -10e-5 0 l 0.2275,-0.2772 v 0 0 l 0.2537,-0.2536 0.2772,-0.2276 v 0 l 0.2982,-0.1992 10e-5,-10e-5 0.3163,-0.169 v 0 l 0.3313,-0.1373 0.3433,-0.1041 v 0 l 0.3517,-0.07 h 1e-4 l 0.2699,-0.0266 0.087,-0.0085 h 0.3587 l 0.0805,0.0079 0.2764,0.0272 v 0 l 0.3518,0.07 v 0 l 0.3432,0.1041 0.3314,0.1373 v 0 l 0.3163,0.169 1e-4,10e-5 0.2981,0.1992 h 1e-4 l 0.2772,0.2276 0.2536,0.2536 0.2276,0.2772 v 10e-5 l 0.1992,0.2981 10e-5,10e-5 0.169,0.3163 v 0 l 0.1373,0.3314 0.1041,0.3432 v 0 l 0.07,0.3518 v 0 l 0.0351,0.3569 h 2.7345 l -2.9111,-3.0599 v 0 l -0.031,-0.0325 -0.0037,-0.0038 -0.2902,-0.2797 -0.008,-0.007 -0.3111,-0.2519 -0.0087,-0.0064 -0.3317,-0.224 -0.0091,-0.0056 -0.3499,-0.1945 -0.0096,-0.0047 -0.3653,-0.1636 -0.01,-0.0039 -0.3781,-0.1313 -0.0103,-0.0031 -0.3881,-0.0981 -0.0104,-0.0022 -0.3951,-0.0642 -0.0107,-0.0012 -0.3992,-0.0298 -0.0107,-4e-4 z"
       id="path288" />
  </g>
  <g
     style="fill:#ffffff;fill-opacity:1;stroke:none"
     id="g294"
     transform="translate(-11.905706,-16.0636)">
    <circle
       cx="52.294201"
       cy="47.200001"
       r="0.15000001"
       id="circle292" />
  </g>
  <g
     style="fill:#ffffff;fill-opacity:1;stroke:none"
     id="g298"
     transform="translate(-11.905706,-16.0636)">
    <circle
       cx="59.494202"
       cy="70.5"
       r="0.15000001"
       id="circle296" />
  </g>
  <g
     style="fill:#ffffff;fill-opacity:1;stroke:none"
     id="g302"
     transform="translate(-11.905706,-16.0636)">
    <circle
       cx="52.894199"
       cy="47.299999"
       r="0.15000001"
       id="circle300" />
  </g>
  <g
     style="fill:#ffffff;fill-opacity:1;stroke:none"
     id="g306"
     transform="translate(-11.905706,-16.0636)">
    <circle
       cx="61.794201"
       cy="69.199997"
       r="0.15000001"
       id="circle304" />
  </g>
  <g
     style="fill:#ffffff;fill-opacity:1;stroke:none"
     id="g310"
     transform="translate(-11.905706,-16.0636)">
    <circle
       cx="54.394199"
       cy="73.300003"
       r="0.15000001"
       id="circle308" />
  </g>
  <g
     style="fill:#ffffff;fill-opacity:1;stroke:none"
     id="g314"
     transform="translate(-11.905706,-16.0636)">
    <circle
       cx="52.894199"
       cy="60.599998"
       r="0.15000001"
       id="circle312" />
  </g>
  <g
     style="fill:#ffffff;fill-opacity:1;stroke:none"
     id="g318"
     transform="translate(-11.905706,-16.0636)">
    <circle
       cx="48.294201"
       cy="41.299999"
       r="0.15000001"
       id="circle316" />
  </g>
  <g
     style="fill:#ffffff;fill-opacity:1;stroke:none"
     id="g322"
     transform="translate(-11.905706,-16.0636)">
    <circle
       cx="46.5942"
       cy="69.099998"
       r="0.15000001"
       id="circle320" />
  </g>
  <g
     style="fill:#ffffff;fill-opacity:1;stroke:none"
     id="g326"
     transform="translate(-11.905706,-16.0636)">
    <circle
       cx="48.494202"
       cy="61.400002"
       r="0.15000001"
       id="circle324" />
  </g>
  <g
     style="fill:#ffffff;fill-opacity:1;stroke:none"
     id="g330"
     transform="translate(-11.905706,-16.0636)">
    <circle
       cx="66.794197"
       cy="45.099998"
       r="0.15000001"
       id="circle328" />
  </g>
  <g
     style="fill:#ffffff;fill-opacity:1;stroke:none"
     id="g334"
     transform="translate(-11.905706,-16.0636)">
    <circle
       cx="55.494202"
       cy="69.099998"
       r="0.15000001"
       id="circle332" />
  </g>
  <g
     style="fill:#ffffff;fill-opacity:1;stroke:none"
     id="g338"
     transform="translate(-11.905706,-16.0636)">
    <circle
       cx="30.294201"
       cy="41.799999"
       r="0.15000001"
       id="circle336" />
  </g>
  <g
     style="fill:#ffffff;fill-opacity:1;stroke:none"
     id="g342"
     transform="translate(-11.905706,-16.0636)">
    <circle
       cx="56.694199"
       cy="52.799999"
       r="0.15000001"
       id="circle340" />
  </g>
  <g
     style="fill:#ffffff;fill-opacity:1;stroke:none"
     id="g346"
     transform="translate(-11.905706,-16.0636)">
    <circle
       cx="55.5942"
       cy="37.599998"
       r="0.15000001"
       id="circle344" />
  </g>
  <g
     style="fill:#ffffff;fill-opacity:1;stroke:none"
     id="g350"
     transform="translate(-11.905706,-16.0636)">
    <circle
       cx="51.794201"
       cy="60.599998"
       r="0.15000001"
       id="circle348" />
  </g>
  <g
     style="fill:#ffffff;fill-opacity:1;stroke:none"
     id="g354"
     transform="translate(-11.905706,-16.0636)">
    <circle
       cx="55.394199"
       cy="73.300003"
       r="0.15000001"
       id="circle352" />
  </g>
  <g
     style="fill:#ffffff;fill-opacity:1;stroke:none"
     id="g358"
     transform="translate(-11.905706,-16.0636)">
    <circle
       cx="54.694199"
       cy="58.400002"
       r="0.15000001"
       id="circle356" />
  </g>
  <g
     style="fill:#ffffff;fill-opacity:1;stroke:none"
     id="g362"
     transform="translate(-11.905706,-16.0636)">
    <circle
       cx="43.294201"
       cy="52.900002"
       r="0.15000001"
       id="circle360" />
  </g>
  <g
     style="fill:#ffffff;fill-opacity:1;stroke:none"
     id="g366"
     transform="translate(-11.905706,-16.0636)">
    <circle
       cx="46.5942"
       cy="73.5"
       r="0.15000001"
       id="circle364" />
  </g>
  <g
     style="fill:#ffffff;fill-opacity:1;stroke:none"
     id="g370"
     transform="translate(-11.905706,-16.0636)">
    <circle
       cx="39.5942"
       cy="61.299999"
       r="0.15000001"
       id="circle368" />
  </g>
  <g
     style="fill:#ffffff;fill-opacity:1;stroke:none"
     id="g374"
     transform="translate(-11.905706,-16.0636)">
    <circle
       cx="47.794201"
       cy="40.5"
       r="0.15000001"
       id="circle372" />
  </g>
  <g
     style="fill:#ffffff;fill-opacity:1;stroke:none"
     id="g378"
     transform="translate(-11.905706,-16.0636)">
    <circle
       cx="49.394199"
       cy="60.900002"
       r="0.15000001"
       id="circle376" />
  </g>
  <g
     style="fill:#ffffff;fill-opacity:1;stroke:none"
     id="g382"
     transform="translate(-11.905706,-16.0636)">
    <circle
       cx="62.694199"
       cy="41"
       r="0.15000001"
       id="circle380" />
  </g>
  <g
     style="fill:#ffffff;fill-opacity:1;stroke:none"
     id="g386"
     transform="translate(-11.905706,-16.0636)">
    <circle
       cx="49.0942"
       cy="39.799999"
       r="0.15000001"
       id="circle384" />
  </g>
  <g
     style="fill:#ffffff;fill-opacity:1;stroke:none"
     id="g390"
     transform="translate(-11.905706,-16.0636)">
    <circle
       cx="30.294201"
       cy="51"
       r="0.15000001"
       id="circle388" />
  </g>
  <g
     style="fill:#ffffff;fill-opacity:1;stroke:none"
     id="g394"
     transform="translate(-11.905706,-16.0636)">
    <circle
       cx="44.0942"
       cy="44.900002"
       r="0.15000001"
       id="circle392" />
  </g>
  <g
     style="fill:#ffffff;fill-opacity:1;stroke:none"
     id="g398"
     transform="translate(-11.905706,-16.0636)">
    <circle
       cx="50.494202"
       cy="46.799999"
       r="0.15000001"
       id="circle396" />
  </g>
  <g
     style="fill:#ffffff;fill-opacity:1;stroke:none"
     id="g402"
     transform="translate(-11.905706,-16.0636)">
    <circle
       cx="47.794201"
       cy="74.699997"
       r="0.15000001"
       id="circle400" />
  </g>
  <g
     style="fill:#ffffff;fill-opacity:1;stroke:none"
     id="g406"
     transform="translate(-11.905706,-16.0636)">
    <circle
       cx="45.494202"
       cy="73.5"
       r="0.15000001"
       id="circle404" />
  </g>
  <g
     style="fill:#ffffff;fill-opacity:1;stroke:none"
     id="g410"
     transform="translate(-11.905706,-16.0636)">
    <circle
       cx="53.294201"
       cy="76.099998"
       r="0.15000001"
       id="circle408" />
  </g>
  <g
     style="fill:#ffffff;fill-opacity:1;stroke:none"
     id="g414"
     transform="translate(-11.905706,-16.0636)">
    <circle
       cx="30.294201"
       cy="38.799999"
       r="0.15000001"
       id="circle412" />
  </g>
  <g
     style="fill:#ffffff;fill-opacity:1;stroke:none"
     id="g418"
     transform="translate(-11.905706,-16.0636)">
    <circle
       cx="30.294201"
       cy="54"
       r="0.15000001"
       id="circle416" />
  </g>
  <g
     style="fill:#ffffff;fill-opacity:1;stroke:none"
     id="g422"
     transform="translate(-11.905706,-16.0636)">
    <circle
       cx="53.994202"
       cy="60.599998"
       r="0.15000001"
       id="circle420" />
  </g>
  <g
     style="fill:#ffffff;fill-opacity:1;stroke:none"
     id="g426"
     transform="translate(-11.905706,-16.0636)">
    <circle
       cx="30.294201"
       cy="47.900002"
       r="0.15000001"
       id="circle424" />
  </g>
  <g
     style="fill:#ffffff;fill-opacity:1;stroke:none"
     id="g430"
     transform="translate(-11.905706,-16.0636)">
    <circle
       cx="54.194199"
       cy="69.099998"
       r="0.15000001"
       id="circle428" />
  </g>
  <g
     style="fill:#ffffff;fill-opacity:1;stroke:none"
     id="g434"
     transform="translate(-11.905706,-16.0636)">
    <circle
       cx="53.294201"
       cy="74.699997"
       r="0.15000001"
       id="circle432" />
  </g>
  <g
     style="fill:#ffffff;fill-opacity:1;stroke:none"
     id="g438"
     transform="translate(-11.905706,-16.0636)">
    <circle
       cx="47.794201"
       cy="76.099998"
       r="0.15000001"
       id="circle436" />
  </g>
  <g
     style="fill:#ffffff;fill-opacity:1;stroke:none"
     id="g442"
     transform="translate(-11.905706,-16.0636)">
    <circle
       cx="30.294201"
       cy="44.799999"
       r="0.15000001"
       id="circle440" />
  </g>
  <g
     style="fill:#ffffff;fill-opacity:1;stroke:none"
     id="g446"
     transform="translate(-11.905706,-16.0636)">
    <circle
       cx="50.294201"
       cy="60.400002"
       r="0.15000001"
       id="circle444" />
  </g>
  <g
     style="fill:#ffffff;fill-opacity:1;stroke:none"
     id="g450"
     transform="translate(-11.905706,-16.0636)">
    <circle
       cx="45.394199"
       cy="69.099998"
       r="0.15000001"
       id="circle448" />
  </g>
  <g
     style="fill:#ffffff;fill-opacity:1;stroke:none"
     id="g454"
     transform="translate(-11.905706,-16.0636)">
    <circle
       cx="43.294201"
       cy="56.400002"
       r="0.15000001"
       id="circle452" />
  </g>
  <g
     style="fill:#ffffff;fill-opacity:1;stroke:none"
     id="g458"
     transform="translate(-11.905706,-16.0636)">
    <circle
       cx="45.294201"
       cy="64.599998"
       r="0.15000001"
       id="circle456" />
  </g>
  <g
     style="fill:#ffffff;fill-opacity:1;stroke:none"
     id="g462"
     transform="translate(-11.905706,-16.0636)">
    <circle
       cx="49.694199"
       cy="58.700001"
       r="0.15000001"
       id="circle460" />
  </g>
  <g
     style="fill:#ffffff;fill-opacity:1;stroke:none"
     id="g466"
     transform="translate(-11.905706,-16.0636)">
    <circle
       cx="62.394199"
       cy="43.5"
       r="0.15000001"
       id="circle464" />
  </g>
  <g
     style="fill:#ffffff;fill-opacity:1;stroke:none"
     id="g470"
     transform="translate(-11.905706,-16.0636)">
    <circle
       cx="62.394199"
       cy="45.599998"
       r="0.15000001"
       id="circle468" />
  </g>
  <g
     style="fill:#ffffff;fill-opacity:1;stroke:none"
     id="g474"
     transform="translate(-11.905706,-16.0636)">
    <circle
       cx="54.294201"
       cy="54.799999"
       r="0.15000001"
       id="circle472" />
  </g>
  <g
     style="fill:#ffffff;fill-opacity:1;stroke:none"
     id="g478"
     transform="translate(-11.905706,-16.0636)">
    <circle
       cx="61.694199"
       cy="41.200001"
       r="0.15000001"
       id="circle476" />
  </g>
  <g
     style="fill:#ffffff;fill-opacity:1;stroke:none"
     id="g482"
     transform="translate(-11.905706,-16.0636)">
    <circle
       cx="76.644203"
       cy="72.199997"
       r="0.5"
       id="circle480" />
  </g>
  <g
     style="fill:#ffffff;fill-opacity:1;stroke:none"
     id="g486"
     transform="translate(-11.905706,-16.0636)">
    <circle
       cx="74.144203"
       cy="72.199997"
       r="0.5"
       id="circle484" />
  </g>
  <g
     style="fill:#ffffff;fill-opacity:1;stroke:none"
     id="g490"
     transform="translate(-11.905706,-16.0636)">
    <circle
       cx="53.374199"
       cy="71.675003"
       r="0.30000001"
       id="circle488" />
  </g>
  <g
     style="fill:#ffffff;fill-opacity:1;stroke:none"
     id="g494"
     transform="translate(-11.905706,-16.0636)">
    <circle
       cx="47.5942"
       cy="71.675003"
       r="0.30000001"
       id="circle492" />
  </g>
  <g
     style="fill:none;stroke:#ffffff;stroke-width:0.6;stroke-linecap:round;stroke-linejoin:round;stroke-opacity:1"
     id="g504"
     transform="translate(-11.905706,-16.0636)">
    <path
       d="m 54.8042,71.745 v -1.1"
       id="path496" />
    <path
       d="m 54.8042,75.765 v -0.8"
       id="path498" />
    <path
       d="m 46.1642,71.745 v -1.1"
       id="path500" />
    <path
       d="m 46.1642,75.765 v -0.8"
       id="path502" />
  </g>
  <g
     style="fill:#ffffff;fill-opacity:1;stroke:none"
     id="g508"
     transform="translate(-11.905706,-16.0636)">
    <circle
       cx="70.394203"
       cy="48.5"
       r="0.5"
       id="circle506" />
  </g>
  <g
     style="fill:#ffffff;fill-opacity:1;stroke:none"
     id="g512"
     transform="translate(-11.905706,-16.0636)">
    <circle
       cx="78.394203"
       cy="48.5"
       r="0.5"
       id="circle510" />
  </g>
  <g
     style="fill:#000000;fill-opacity:1;stroke:none"
     id="g516"
     transform="translate(-11.905706,-16.0636)">
    <circle
       cx="76.644203"
       cy="72.199997"
       r="0.5"
       id="circle514" />
  </g>
  <g
     style="fill:#000000;fill-opacity:1;stroke:none"
     id="g520"
     transform="translate(-11.905706,-16.0636)">
    <circle
       cx="74.144203"
       cy="72.199997"
       r="0.5"
       id="circle518" />
  </g>
  <g
     style="fill:#000000;fill-opacity:1;stroke:none"
     id="g524"
     transform="translate(-11.905706,-16.0636)">
    <circle
       cx="53.374199"
       cy="71.675003"
       r="0.30000001"
       id="circle522" />
  </g>
  <g
     style="fill:#000000;fill-opacity:1;stroke:none"
     id="g528"
     transform="translate(-11.905706,-16.0636)">
    <circle
       cx="47.5942"
       cy="71.675003"
       r="0.30000001"
       id="circle526" />
  </g>
  <g
     style="fill:none;stroke:#000000;stroke-width:0.6;stroke-linecap:round;stroke-linejoin:round;stroke-opacity:1"
     id="g538"
     transform="translate(-11.905706,-16.0636)">
    <path
       d="m 54.8042,71.745 v -1.1"
       id="path530" />
    <path
       d="m 54.8042,75.765 v -0.8"
       id="path532" />
    <path
       d="m 46.1642,71.745 v -1.1"
       id="path534" />
    <path
       d="m 46.1642,75.765 v -0.8"
       id="path536" />
  </g>
  <g
     style="fill:#000000;fill-opacity:1;stroke:none"
     id="g542"
     transform="translate(-11.905706,-16.0636)">
    <circle
       cx="70.394203"
       cy="48.5"
       r="0.5"
       id="circle540" />
  </g>
  <g
     style="fill:#000000;fill-opacity:1;stroke:none"
     id="g548"
     transform="translate(-11.905706,-16.0636)">
    <circle
       cx="78.394203"
       cy="48.5"
       r="0.5"
       id="circle544" />
    <path
       style="fill:#02ffee;fill-opacity:0.4;fill-rule:evenodd;stroke:none"
       d="M 77.4942,71.45 77.4752,71.3543 77.421,71.2732 77.3399,71.219 77.2442,71.2 h -1.2 l -0.0957,0.019 -0.0811,0.0542 -0.0542,0.0811 -0.019,0.0957 v 1.5 l 0.019,0.0957 0.0542,0.0811 0.0811,0.0542 0.0957,0.019 h 1.2 l 0.0957,-0.019 0.0811,-0.0542 0.0542,-0.0811 0.019,-0.0957 z"
       id="path546" />
  </g>
  <g
     style="fill:none;stroke:#02ffee;stroke-width:1.7;stroke-linecap:round;stroke-linejoin:round;stroke-opacity:1"
     id="g552"
     transform="translate(-11.905706,-16.0636)">
    <path
       d="m 74.1442,72.05 v 0.3"
       id="path550" />
  </g>
  <g
     style="fill:#02ffee;fill-opacity:0.4;stroke:none"
     id="g556"
     transform="translate(-11.905706,-16.0636)">
    <circle
       cx="53.374199"
       cy="71.675003"
       r="0.30000001"
       id="circle554" />
  </g>
  <g
     style="fill:#02ffee;fill-opacity:0.4;stroke:none"
     id="g560"
     transform="translate(-11.905706,-16.0636)">
    <circle
       cx="47.5942"
       cy="71.675003"
       r="0.30000001"
       id="circle558" />
  </g>
  <g
     style="fill:none;stroke:#02ffee;stroke-width:0.9;stroke-linecap:round;stroke-linejoin:round;stroke-opacity:1"
     id="g570"
     transform="translate(-11.905706,-16.0636)">
    <path
       d="m 54.8042,71.745 v -1.1"
       id="path562" />
    <path
       d="m 54.8042,75.765 v -0.8"
       id="path564" />
    <path
       d="m 46.1642,71.745 v -1.1"
       id="path566" />
    <path
       d="m 46.1642,75.765 v -0.8"
       id="path568" />
  </g>
  <g
     style="fill:#02ffee;fill-opacity:0.4;stroke:none"
     id="g574"
     transform="translate(-11.905706,-16.0636)">
    <circle
       cx="70.394203"
       cy="48.5"
       r="0.5"
       id="circle572" />
  </g>
  <g
     style="fill:#02ffee;fill-opacity:0.4;stroke:none"
     id="g614"
     transform="translate(-11.905706,-16.0636)">
    <circle
       cx="78.394203"
       cy="48.5"
       r="0.5"
       id="circle576" />
    <path
       style="fill:#02ffee;fill-opacity:0.4;fill-rule:evenodd;stroke:none"
       d="m 63.9312,21.7886 v -4.3 h -0.7 v 4.3 z"
       id="path578" />
    <path
       style="fill:#02ffee;fill-opacity:0.4;fill-rule:evenodd;stroke:none"
       d="m 62.9312,21.7886 v -4.3 h -0.7 v 4.3 z"
       id="path580" />
    <path
       style="fill:#02ffee;fill-opacity:0.4;fill-rule:evenodd;stroke:none"
       d="m 61.9312,21.7886 v -4.3 h -0.7 v 4.3 z"
       id="path582" />
    <path
       style="fill:#02ffee;fill-opacity:0.4;fill-rule:evenodd;stroke:none"
       d="m 60.9312,21.7886 v -4.3 h -0.7 v 4.3 z"
       id="path584" />
    <path
       style="fill:#02ffee;fill-opacity:0.4;fill-rule:evenodd;stroke:none"
       d="m 59.9312,21.7886 v -4.3 h -0.7 v 4.3 z"
       id="path586" />
    <path
       style="fill:#02ffee;fill-opacity:0.4;fill-rule:evenodd;stroke:none"
       d="m 58.9312,21.7886 v -4.3 h -0.7 v 4.3 z"
       id="path588" />
    <path
       style="fill:#02ffee;fill-opacity:0.4;fill-rule:evenodd;stroke:none"
       d="m 57.9312,21.7886 v -4.3 h -0.7 v 4.3 z"
       id="path590" />
    <path
       style="fill:#02ffee;fill-opacity:0.4;fill-rule:evenodd;stroke:none"
       d="m 56.9312,21.7886 v -4.3 h -0.7 v 4.3 z"
       id="path592" />
    <path
       style="fill:#02ffee;fill-opacity:0.4;fill-rule:evenodd;stroke:none"
       d="m 55.9312,21.7886 v -4.3 h -0.7 v 4.3 z"
       id="path594" />
    <path
       style="fill:#02ffee;fill-opacity:0.4;fill-rule:evenodd;stroke:none"
       d="m 54.9312,21.7886 v -4.3 h -0.7 v 4.3 z"
       id="path596" />
    <path
       style="fill:#02ffee;fill-opacity:0.4;fill-rule:evenodd;stroke:none"
       d="m 53.9312,21.7886 v -4.3 h -0.7 v 4.3 z"
       id="path598" />
    <path
       style="fill:#02ffee;fill-opacity:0.4;fill-rule:evenodd;stroke:none"
       d="m 50.9312,21.7886 v -4.3 h -0.7 v 4.3 z"
       id="path600" />
    <path
       style="fill:#02ffee;fill-opacity:0.4;fill-rule:evenodd;stroke:none"
       d="m 49.9312,21.7886 v -4.3 h -0.7 v 4.3 z"
       id="path602" />
    <path
       style="fill:#02ffee;fill-opacity:0.4;fill-rule:evenodd;stroke:none"
       d="m 48.9312,21.7886 v -4.3 h -0.7 v 4.3 z"
       id="path604" />
    <path
       style="fill:#02ffee;fill-opacity:0.4;fill-rule:evenodd;stroke:none"
       d="m 47.9312,21.7886 v -4.3 h -0.7 v 4.3 z"
       id="path606" />
    <path
       style="fill:#02ffee;fill-opacity:0.4;fill-rule:evenodd;stroke:none"
       d="m 46.9312,21.7886 v -4.3 h -0.7 v 4.3 z"
       id="path608" />
    <path
       style="fill:#02ffee;fill-opacity:0.4;fill-rule:evenodd;stroke:none"
       d="m 45.9312,21.7886 v -4.3 h -0.7 v 4.3 z"
       id="path610" />
    <path
       style="fill:#02ffee;fill-opacity:0.4;fill-rule:evenodd;stroke:none"
       d="m 44.9312,21.7886 v -4.3 h -0.7 v 4.3 z"
       id="path612" />
  </g>
  <g
     style="fill:none;stroke:#d0d2cd;stroke-width:0.25;stroke-linecap:round;stroke-linejoin:round;stroke-opacity:1"
     id="g688"
     transform="translate(-11.905706,-16.0636)">
    <path
       d="M 40.8161,24.3355 34.6104,17.8126"
       id="path616" />
    <path
       d="m 67.3502,24.3318 6.2022,-6.5192"
       id="path618" />
    <path
       d="M 25.9826,77.92 H 82.1802"
       id="path620" />
    <circle
       cx="17.0809"
       cy="65.568604"
       r="3.3499999"
       id="circle622" />
    <path
       d="m 40.8161,24.3355 a 1.0001,1.0001 0 0 0 0.7245,0.3108"
       id="path624" />
    <path
       d="m 12.2618,64.0589 a 5.05,5.05 0 0 0 1.6165,5.4143"
       id="path626" />
    <path
       d="M 66.6222,24.6462 H 64.739"
       id="path628" />
    <path
       d="m 82.1802,77.92 a 5.05,5.05 0 0 0 3.2026,-1.1454"
       id="path630" />
    <path
       d="m 41.5406,24.6462 h 1.8831"
       id="path632" />
    <path
       d="m 26.1326,19.7837 v 0"
       id="path634" />
    <path
       d="M 13.8783,69.4732 22.78,76.7745"
       id="path636" />
    <path
       d="m 66.6222,24.6462 a 0.9999,0.9999 0 0 0 0.728,-0.3144"
       id="path638" />
    <path
       d="m 34.6104,17.8126 a 5.0501,5.0501 0 0 0 -8.4779,1.9711"
       id="path640" />
    <path
       d="M 82.0301,19.7837 A 5.05,5.05 0 0 0 73.5524,17.8126"
       id="path642" />
    <circle
       cx="91.081802"
       cy="65.568604"
       r="3.3499999"
       id="circle644" />
    <path
       d="m 64.239,24.1463 a 0.5,0.5 0 0 0 0.5,0.5"
       id="path646" />
    <path
       d="M 26.1326,19.7837 12.2618,64.0589"
       id="path648" />
    <circle
       cx="30.951599"
       cy="21.293501"
       r="3.3499999"
       id="circle650" />
    <circle
       cx="77.211098"
       cy="21.293501"
       r="3.3499999"
       id="circle652" />
    <path
       d="m 94.2844,69.4732 -8.9016,7.3014"
       id="path654" />
    <path
       d="m 82.0301,19.7837 v 0"
       id="path656" />
    <path
       d="m 43.4237,24.6462 a 0.5,0.5 0 0 0 0.5,-0.5"
       id="path658" />
    <path
       d="M 82.0301,19.7837 95.9058,64.0746"
       id="path660" />
    <path
       d="m 94.2844,69.4732 a 5.0502,5.0502 0 0 0 1.6215,-5.3986"
       id="path662" />
    <path
       d="M 22.78,76.7745 A 5.05,5.05 0 0 0 25.9826,77.92"
       id="path664" />
    <path
       d="m 64.2312,16.6886 v 7.4563"
       id="path666" />
    <path
       d="m 63.7312,16.1886 0.5,0.5"
       id="path668" />
    <path
       d="m 53.5312,16.1886 h 10.2"
       id="path670" />
    <path
       d="m 53.5312,16.1886 -0.5,0.5"
       id="path672" />
    <path
       d="m 53.0312,16.6886 v 6.95"
       id="path674" />
    <path
       d="m 51.1312,16.6886 v 6.95"
       id="path676" />
    <path
       d="m 50.6312,16.1886 0.5,0.5"
       id="path678" />
    <path
       d="m 44.4312,16.1886 h 6.2"
       id="path680" />
    <path
       d="m 44.4312,16.1886 -0.5,0.5"
       id="path682" />
    <path
       d="M 43.9312,24.1449 V 16.6886"
       id="path684" />
    <path
       d="m 51.1312,23.6386 a 0.95,0.95 0 0 0 1.9,0"
       id="path686" />
  </g>
  <g
     style="fill:#d0d2cd;fill-opacity:1;stroke:none"
     id="g692"
     transform="translate(-11.905706,-16.0636)">
    <circle
       cx="76.644203"
       cy="72.199997"
       r="0.5"
       id="circle690" />
  </g>
  <g
     style="fill:#d0d2cd;fill-opacity:1;stroke:none"
     id="g696"
     transform="translate(-11.905706,-16.0636)">
    <circle
       cx="74.144203"
       cy="72.199997"
       r="0.5"
       id="circle694" />
  </g>
  <g
     style="fill:#d0d2cd;fill-opacity:1;stroke:none"
     id="g700"
     transform="translate(-11.905706,-16.0636)">
    <circle
       cx="53.374199"
       cy="71.675003"
       r="0.30000001"
       id="circle698" />
  </g>
  <g
     style="fill:#d0d2cd;fill-opacity:1;stroke:none"
     id="g704"
     transform="translate(-11.905706,-16.0636)">
    <circle
       cx="47.5942"
       cy="71.675003"
       r="0.30000001"
       id="circle702" />
  </g>
  <g
     style="fill:none;stroke:#d0d2cd;stroke-width:0.6;stroke-linecap:round;stroke-linejoin:round;stroke-opacity:1"
     id="g714"
     transform="translate(-11.905706,-16.0636)">
    <path
       d="m 54.8042,71.745 v -1.1"
       id="path706" />
    <path
       d="m 54.8042,75.765 v -0.8"
       id="path708" />
    <path
       d="m 46.1642,71.745 v -1.1"
       id="path710" />
    <path
       d="m 46.1642,75.765 v -0.8"
       id="path712" />
  </g>
  <g
     style="fill:#d0d2cd;fill-opacity:1;stroke:none"
     id="g718"
     transform="translate(-11.905706,-16.0636)">
    <circle
       cx="70.394203"
       cy="48.5"
       r="0.5"
       id="circle716" />
  </g>
  <g
     style="fill:#d0d2cd;fill-opacity:1;stroke:none"
     id="g722"
     transform="translate(-11.905706,-16.0636)">
    <circle
       cx="78.394203"
       cy="48.5"
       r="0.5"
       id="circle720" />
  </g>
  <g
     style="fill:#ffffff;fill-opacity:1;stroke:none"
     id="g726"
     transform="translate(-11.905706,-16.0636)">
    <circle
       cx="76.644203"
       cy="72.199997"
       r="0.5"
       id="circle724" />
  </g>
  <g
     style="fill:#ffffff;fill-opacity:1;stroke:none"
     id="g730"
     transform="translate(-11.905706,-16.0636)">
    <circle
       cx="74.144203"
       cy="72.199997"
       r="0.5"
       id="circle728" />
  </g>
  <g
     style="fill:#ffffff;fill-opacity:1;stroke:none"
     id="g734"
     transform="translate(-11.905706,-16.0636)">
    <circle
       cx="53.374199"
       cy="71.675003"
       r="0.30000001"
       id="circle732" />
  </g>
  <g
     style="fill:#ffffff;fill-opacity:1;stroke:none"
     id="g738"
     transform="translate(-11.905706,-16.0636)">
    <circle
       cx="47.5942"
       cy="71.675003"
       r="0.30000001"
       id="circle736" />
  </g>
  <g
     style="fill:none;stroke:#ffffff;stroke-width:0.6;stroke-linecap:round;stroke-linejoin:round;stroke-opacity:1"
     id="g748"
     transform="translate(-11.905706,-16.0636)">
    <path
       d="m 54.8042,71.745 v -1.1"
       id="path740" />
    <path
       d="m 54.8042,75.765 v -0.8"
       id="path742" />
    <path
       d="m 46.1642,71.745 v -1.1"
       id="path744" />
    <path
       d="m 46.1642,75.765 v -0.8"
       id="path746" />
  </g>
  <g
     style="fill:#ffffff;fill-opacity:1;stroke:none"
     id="g752"
     transform="translate(-11.905706,-16.0636)">
    <circle
       cx="70.394203"
       cy="48.5"
       r="0.5"
       id="circle750" />
  </g>
  <g
     style="fill:#ffffff;fill-opacity:1;stroke:none"
     id="g756"
     transform="translate(-11.905706,-16.0636)">
    <circle
       cx="78.394203"
       cy="48.5"
       r="0.5"
       id="circle754" />
  </g>
</svg>
