<?xml version="1.0" encoding="UTF-8" standalone="no"?>
<svg
   version="1.1"
   width="84.351341mm"
   height="61.9814mm"
   viewBox="0 0 84.351342 61.981399"
   id="svg906"
   sodipodi:docname="pcbb.svg"
   xmlns:inkscape="http://www.inkscape.org/namespaces/inkscape"
   xmlns:sodipodi="http://sodipodi.sourceforge.net/DTD/sodipodi-0.dtd"
   xmlns="http://www.w3.org/2000/svg"
   xmlns:svg="http://www.w3.org/2000/svg">
  <defs
     id="defs910" />
  <sodipodi:namedview
     id="namedview908"
     pagecolor="#ffffff"
     bordercolor="#000000"
     borderopacity="0.25"
     inkscape:showpageshadow="2"
     inkscape:pageopacity="0.0"
     inkscape:pagecheckerboard="0"
     inkscape:deskcolor="#d1d1d1"
     inkscape:document-units="mm" />
  <title
     id="title2">SVG Image created as pcbb.svg date 2025/03/03 19:30:28 </title>
  <desc
     id="desc4">Image generated by PCBNEW </desc>
  <g
     style="fill:#000000;fill-opacity:1;stroke:#000000;stroke-linecap:round;stroke-linejoin:round;stroke-opacity:1"
     id="g8"
     transform="translate(-108.41371,-60.5636)">
    <path
       style="fill:#4d7fc4;fill-opacity:1;fill-rule:evenodd;stroke:none"
       d="m 177.6022,115.95 -0.019,-0.0957 -0.0542,-0.0811 -0.0811,-0.0542 -0.0957,-0.019 h -1.2 l -0.0957,0.019 -0.0811,0.0542 -0.0542,0.0811 -0.019,0.0957 v 1.5 l 0.019,0.0957 0.0542,0.0811 0.0811,0.0542 0.0957,0.019 h 1.2 l 0.0957,-0.019 0.0811,-0.0542 0.0542,-0.0811 0.019,-0.0957 z"
       id="path6" />
  </g>
  <g
     style="fill:none;stroke:#4d7fc4;stroke-width:1.7;stroke-linecap:round;stroke-linejoin:round;stroke-opacity:1"
     id="g12"
     transform="translate(-108.41371,-60.5636)">
    <path
       d="m 174.2522,116.55 v 0.3"
       id="path10" />
  </g>
  <g
     style="fill:none;stroke:#4d7fc4;stroke-width:0.9;stroke-linecap:round;stroke-linejoin:round;stroke-opacity:1"
     id="g58"
     transform="translate(-108.41371,-60.5636)">
    <path
       d="m 154.9122,116.245 v -1.1"
       id="path14" />
    <path
       d="m 154.9122,120.265 v -0.8"
       id="path16" />
    <path
       d="m 146.2722,116.245 v -1.1"
       id="path18" />
    <path
       d="m 146.2722,120.265 v -0.8"
       id="path20" />
    <path
       style="fill:#4d7fc4;fill-opacity:1;fill-rule:evenodd;stroke:none"
       d="m 160.4392,66.2886 v -4.3 h -0.7 v 4.3 z"
       id="path22" />
    <path
       style="fill:#4d7fc4;fill-opacity:1;fill-rule:evenodd;stroke:none"
       d="m 159.4392,66.2886 v -4.3 h -0.7 v 4.3 z"
       id="path24" />
    <path
       style="fill:#4d7fc4;fill-opacity:1;fill-rule:evenodd;stroke:none"
       d="m 158.4392,66.2886 v -4.3 h -0.7 v 4.3 z"
       id="path26" />
    <path
       style="fill:#4d7fc4;fill-opacity:1;fill-rule:evenodd;stroke:none"
       d="m 157.4392,66.2886 v -4.3 h -0.7 v 4.3 z"
       id="path28" />
    <path
       style="fill:#4d7fc4;fill-opacity:1;fill-rule:evenodd;stroke:none"
       d="m 156.4392,66.2886 v -4.3 h -0.7 v 4.3 z"
       id="path30" />
    <path
       style="fill:#4d7fc4;fill-opacity:1;fill-rule:evenodd;stroke:none"
       d="m 155.4392,66.2886 v -4.3 h -0.7 v 4.3 z"
       id="path32" />
    <path
       style="fill:#4d7fc4;fill-opacity:1;fill-rule:evenodd;stroke:none"
       d="m 154.4392,66.2886 v -4.3 h -0.7 v 4.3 z"
       id="path34" />
    <path
       style="fill:#4d7fc4;fill-opacity:1;fill-rule:evenodd;stroke:none"
       d="m 153.4392,66.2886 v -4.3 h -0.7 v 4.3 z"
       id="path36" />
    <path
       style="fill:#4d7fc4;fill-opacity:1;fill-rule:evenodd;stroke:none"
       d="m 152.4392,66.2886 v -4.3 h -0.7 v 4.3 z"
       id="path38" />
    <path
       style="fill:#4d7fc4;fill-opacity:1;fill-rule:evenodd;stroke:none"
       d="m 151.4392,66.2886 v -4.3 h -0.7 v 4.3 z"
       id="path40" />
    <path
       style="fill:#4d7fc4;fill-opacity:1;fill-rule:evenodd;stroke:none"
       d="m 150.4392,66.2886 v -4.3 h -0.7 v 4.3 z"
       id="path42" />
    <path
       style="fill:#4d7fc4;fill-opacity:1;fill-rule:evenodd;stroke:none"
       d="m 147.4392,66.2886 v -4.3 h -0.7 v 4.3 z"
       id="path44" />
    <path
       style="fill:#4d7fc4;fill-opacity:1;fill-rule:evenodd;stroke:none"
       d="m 146.4392,66.2886 v -4.3 h -0.7 v 4.3 z"
       id="path46" />
    <path
       style="fill:#4d7fc4;fill-opacity:1;fill-rule:evenodd;stroke:none"
       d="m 145.4392,66.2886 v -4.3 h -0.7 v 4.3 z"
       id="path48" />
    <path
       style="fill:#4d7fc4;fill-opacity:1;fill-rule:evenodd;stroke:none"
       d="m 144.4392,66.2886 v -4.3 h -0.7 v 4.3 z"
       id="path50" />
    <path
       style="fill:#4d7fc4;fill-opacity:1;fill-rule:evenodd;stroke:none"
       d="m 143.4392,66.2886 v -4.3 h -0.7 v 4.3 z"
       id="path52" />
    <path
       style="fill:#4d7fc4;fill-opacity:1;fill-rule:evenodd;stroke:none"
       d="m 142.4392,66.2886 v -4.3 h -0.7 v 4.3 z"
       id="path54" />
    <path
       style="fill:#4d7fc4;fill-opacity:1;fill-rule:evenodd;stroke:none"
       d="m 141.4392,66.2886 v -4.3 h -0.7 v 4.3 z"
       id="path56" />
  </g>
  <g
     style="fill:#4d7fc4;fill-opacity:1;stroke:none"
     id="g62"
     transform="translate(-108.41371,-60.5636)">
    <circle
       cx="152.40221"
       cy="91.699997"
       r="0.2"
       id="circle60" />
  </g>
  <g
     style="fill:#4d7fc4;fill-opacity:1;stroke:none"
     id="g66"
     transform="translate(-108.41371,-60.5636)">
    <circle
       cx="159.6022"
       cy="115"
       r="0.2"
       id="circle64" />
  </g>
  <g
     style="fill:#4d7fc4;fill-opacity:1;stroke:none"
     id="g70"
     transform="translate(-108.41371,-60.5636)">
    <circle
       cx="153.0022"
       cy="91.800003"
       r="0.2"
       id="circle68" />
  </g>
  <g
     style="fill:#4d7fc4;fill-opacity:1;stroke:none"
     id="g74"
     transform="translate(-108.41371,-60.5636)">
    <circle
       cx="161.90221"
       cy="113.7"
       r="0.2"
       id="circle72" />
  </g>
  <g
     style="fill:#4d7fc4;fill-opacity:1;stroke:none"
     id="g78"
     transform="translate(-108.41371,-60.5636)">
    <circle
       cx="167.3022"
       cy="119.7"
       r="0.2"
       id="circle76" />
  </g>
  <g
     style="fill:#4d7fc4;fill-opacity:1;stroke:none"
     id="g82"
     transform="translate(-108.41371,-60.5636)">
    <circle
       cx="154.5022"
       cy="117.8"
       r="0.2"
       id="circle80" />
  </g>
  <g
     style="fill:#4d7fc4;fill-opacity:1;stroke:none"
     id="g86"
     transform="translate(-108.41371,-60.5636)">
    <circle
       cx="153.0022"
       cy="105.1"
       r="0.2"
       id="circle84" />
  </g>
  <g
     style="fill:#4d7fc4;fill-opacity:1;stroke:none"
     id="g90"
     transform="translate(-108.41371,-60.5636)">
    <circle
       cx="131.90221"
       cy="118.6"
       r="0.2"
       id="circle88" />
  </g>
  <g
     style="fill:#4d7fc4;fill-opacity:1;stroke:none"
     id="g94"
     transform="translate(-108.41371,-60.5636)">
    <circle
       cx="133.5022"
       cy="118.8"
       r="0.2"
       id="circle92" />
  </g>
  <g
     style="fill:#4d7fc4;fill-opacity:1;stroke:none"
     id="g98"
     transform="translate(-108.41371,-60.5636)">
    <circle
       cx="163.0022"
       cy="118.7"
       r="0.2"
       id="circle96" />
  </g>
  <g
     style="fill:#4d7fc4;fill-opacity:1;stroke:none"
     id="g102"
     transform="translate(-108.41371,-60.5636)">
    <circle
       cx="148.40221"
       cy="85.800003"
       r="0.2"
       id="circle100" />
  </g>
  <g
     style="fill:#4d7fc4;fill-opacity:1;stroke:none"
     id="g106"
     transform="translate(-108.41371,-60.5636)">
    <circle
       cx="146.70219"
       cy="113.6"
       r="0.2"
       id="circle104" />
  </g>
  <g
     style="fill:#4d7fc4;fill-opacity:1;stroke:none"
     id="g110"
     transform="translate(-108.41371,-60.5636)">
    <circle
       cx="138.40221"
       cy="120.5"
       r="0.2"
       id="circle108" />
  </g>
  <g
     style="fill:#4d7fc4;fill-opacity:1;stroke:none"
     id="g114"
     transform="translate(-108.41371,-60.5636)">
    <circle
       cx="148.6022"
       cy="105.9"
       r="0.2"
       id="circle112" />
  </g>
  <g
     style="fill:#4d7fc4;fill-opacity:1;stroke:none"
     id="g118"
     transform="translate(-108.41371,-60.5636)">
    <circle
       cx="166.90221"
       cy="89.599998"
       r="0.2"
       id="circle116" />
  </g>
  <g
     style="fill:#4d7fc4;fill-opacity:1;stroke:none"
     id="g122"
     transform="translate(-108.41371,-60.5636)">
    <circle
       cx="155.6022"
       cy="113.6"
       r="0.2"
       id="circle120" />
  </g>
  <g
     style="fill:#4d7fc4;fill-opacity:1;stroke:none"
     id="g126"
     transform="translate(-108.41371,-60.5636)">
    <circle
       cx="136.40221"
       cy="118.8"
       r="0.2"
       id="circle124" />
  </g>
  <g
     style="fill:#4d7fc4;fill-opacity:1;stroke:none"
     id="g130"
     transform="translate(-108.41371,-60.5636)">
    <circle
       cx="130.40221"
       cy="86.300003"
       r="0.2"
       id="circle128" />
  </g>
  <g
     style="fill:#4d7fc4;fill-opacity:1;stroke:none"
     id="g134"
     transform="translate(-108.41371,-60.5636)">
    <circle
       cx="138.3022"
       cy="118.6"
       r="0.2"
       id="circle132" />
  </g>
  <g
     style="fill:#4d7fc4;fill-opacity:1;stroke:none"
     id="g138"
     transform="translate(-108.41371,-60.5636)">
    <circle
       cx="156.8022"
       cy="97.300003"
       r="0.2"
       id="circle136" />
  </g>
  <g
     style="fill:#4d7fc4;fill-opacity:1;stroke:none"
     id="g142"
     transform="translate(-108.41371,-60.5636)">
    <circle
       cx="169.3022"
       cy="118.6"
       r="0.2"
       id="circle140" />
  </g>
  <g
     style="fill:#4d7fc4;fill-opacity:1;stroke:none"
     id="g146"
     transform="translate(-108.41371,-60.5636)">
    <circle
       cx="155.70219"
       cy="82.099998"
       r="0.2"
       id="circle144" />
  </g>
  <g
     style="fill:#4d7fc4;fill-opacity:1;stroke:none"
     id="g150"
     transform="translate(-108.41371,-60.5636)">
    <circle
       cx="167.3022"
       cy="118.6"
       r="0.2"
       id="circle148" />
  </g>
  <g
     style="fill:#4d7fc4;fill-opacity:1;stroke:none"
     id="g154"
     transform="translate(-108.41371,-60.5636)">
    <circle
       cx="151.90221"
       cy="105.1"
       r="0.2"
       id="circle152" />
  </g>
  <g
     style="fill:#4d7fc4;fill-opacity:1;stroke:none"
     id="g158"
     transform="translate(-108.41371,-60.5636)">
    <circle
       cx="155.5022"
       cy="117.8"
       r="0.2"
       id="circle156" />
  </g>
  <g
     style="fill:#4d7fc4;fill-opacity:1;stroke:none"
     id="g162"
     transform="translate(-108.41371,-60.5636)">
    <circle
       cx="154.8022"
       cy="102.9"
       r="0.2"
       id="circle160" />
  </g>
  <g
     style="fill:#4d7fc4;fill-opacity:1;stroke:none"
     id="g166"
     transform="translate(-108.41371,-60.5636)">
    <circle
       cx="165.1022"
       cy="119.7"
       r="0.2"
       id="circle164" />
  </g>
  <g
     style="fill:#4d7fc4;fill-opacity:1;stroke:none"
     id="g170"
     transform="translate(-108.41371,-60.5636)">
    <circle
       cx="143.40221"
       cy="97.400002"
       r="0.2"
       id="circle168" />
  </g>
  <g
     style="fill:#4d7fc4;fill-opacity:1;stroke:none"
     id="g174"
     transform="translate(-108.41371,-60.5636)">
    <circle
       cx="169.3022"
       cy="120.5"
       r="0.2"
       id="circle172" />
  </g>
  <g
     style="fill:#4d7fc4;fill-opacity:1;stroke:none"
     id="g178"
     transform="translate(-108.41371,-60.5636)">
    <circle
       cx="146.70219"
       cy="118"
       r="0.2"
       id="circle176" />
  </g>
  <g
     style="fill:#4d7fc4;fill-opacity:1;stroke:none"
     id="g182"
     transform="translate(-108.41371,-60.5636)">
    <circle
       cx="163.0022"
       cy="120.5"
       r="0.2"
       id="circle180" />
  </g>
  <g
     style="fill:#4d7fc4;fill-opacity:1;stroke:none"
     id="g186"
     transform="translate(-108.41371,-60.5636)">
    <circle
       cx="139.70219"
       cy="105.8"
       r="0.2"
       id="circle184" />
  </g>
  <g
     style="fill:#4d7fc4;fill-opacity:1;stroke:none"
     id="g190"
     transform="translate(-108.41371,-60.5636)">
    <circle
       cx="147.90221"
       cy="85"
       r="0.2"
       id="circle188" />
  </g>
  <g
     style="fill:#4d7fc4;fill-opacity:1;stroke:none"
     id="g194"
     transform="translate(-108.41371,-60.5636)">
    <circle
       cx="149.5022"
       cy="105.4"
       r="0.2"
       id="circle192" />
  </g>
  <g
     style="fill:#4d7fc4;fill-opacity:1;stroke:none"
     id="g198"
     transform="translate(-108.41371,-60.5636)">
    <circle
       cx="162.8022"
       cy="85.5"
       r="0.2"
       id="circle196" />
  </g>
  <g
     style="fill:#4d7fc4;fill-opacity:1;stroke:none"
     id="g202"
     transform="translate(-108.41371,-60.5636)">
    <circle
       cx="149.20219"
       cy="84.300003"
       r="0.2"
       id="circle200" />
  </g>
  <g
     style="fill:#4d7fc4;fill-opacity:1;stroke:none"
     id="g206"
     transform="translate(-108.41371,-60.5636)">
    <circle
       cx="130.40221"
       cy="95.5"
       r="0.2"
       id="circle204" />
  </g>
  <g
     style="fill:#4d7fc4;fill-opacity:1;stroke:none"
     id="g210"
     transform="translate(-108.41371,-60.5636)">
    <circle
       cx="144.20219"
       cy="89.400002"
       r="0.2"
       id="circle208" />
  </g>
  <g
     style="fill:#4d7fc4;fill-opacity:1;stroke:none"
     id="g214"
     transform="translate(-108.41371,-60.5636)">
    <circle
       cx="150.6022"
       cy="91.300003"
       r="0.2"
       id="circle212" />
  </g>
  <g
     style="fill:#4d7fc4;fill-opacity:1;stroke:none"
     id="g218"
     transform="translate(-108.41371,-60.5636)">
    <circle
       cx="147.90221"
       cy="119.2"
       r="0.2"
       id="circle216" />
  </g>
  <g
     style="fill:#4d7fc4;fill-opacity:1;stroke:none"
     id="g222"
     transform="translate(-108.41371,-60.5636)">
    <circle
       cx="145.6022"
       cy="118"
       r="0.2"
       id="circle220" />
  </g>
  <g
     style="fill:#4d7fc4;fill-opacity:1;stroke:none"
     id="g226"
     transform="translate(-108.41371,-60.5636)">
    <circle
       cx="153.40221"
       cy="120.6"
       r="0.2"
       id="circle224" />
  </g>
  <g
     style="fill:#4d7fc4;fill-opacity:1;stroke:none"
     id="g230"
     transform="translate(-108.41371,-60.5636)">
    <circle
       cx="131.90221"
       cy="120.5"
       r="0.2"
       id="circle228" />
  </g>
  <g
     style="fill:#4d7fc4;fill-opacity:1;stroke:none"
     id="g234"
     transform="translate(-108.41371,-60.5636)">
    <circle
       cx="130.40221"
       cy="83.300003"
       r="0.2"
       id="circle232" />
  </g>
  <g
     style="fill:#4d7fc4;fill-opacity:1;stroke:none"
     id="g238"
     transform="translate(-108.41371,-60.5636)">
    <circle
       cx="165.1022"
       cy="118.6"
       r="0.2"
       id="circle236" />
  </g>
  <g
     style="fill:#4d7fc4;fill-opacity:1;stroke:none"
     id="g242"
     transform="translate(-108.41371,-60.5636)">
    <circle
       cx="130.40221"
       cy="98.5"
       r="0.2"
       id="circle240" />
  </g>
  <g
     style="fill:#4d7fc4;fill-opacity:1;stroke:none"
     id="g246"
     transform="translate(-108.41371,-60.5636)">
    <circle
       cx="154.1022"
       cy="105.1"
       r="0.2"
       id="circle244" />
  </g>
  <g
     style="fill:#4d7fc4;fill-opacity:1;stroke:none"
     id="g250"
     transform="translate(-108.41371,-60.5636)">
    <circle
       cx="130.40221"
       cy="92.400002"
       r="0.2"
       id="circle248" />
  </g>
  <g
     style="fill:#4d7fc4;fill-opacity:1;stroke:none"
     id="g254"
     transform="translate(-108.41371,-60.5636)">
    <circle
       cx="154.3022"
       cy="113.6"
       r="0.2"
       id="circle252" />
  </g>
  <g
     style="fill:#4d7fc4;fill-opacity:1;stroke:none"
     id="g258"
     transform="translate(-108.41371,-60.5636)">
    <circle
       cx="153.40221"
       cy="119.2"
       r="0.2"
       id="circle256" />
  </g>
  <g
     style="fill:#4d7fc4;fill-opacity:1;stroke:none"
     id="g262"
     transform="translate(-108.41371,-60.5636)">
    <circle
       cx="136.40221"
       cy="119.8"
       r="0.2"
       id="circle260" />
  </g>
  <g
     style="fill:#4d7fc4;fill-opacity:1;stroke:none"
     id="g266"
     transform="translate(-108.41371,-60.5636)">
    <circle
       cx="133.5022"
       cy="119.8"
       r="0.2"
       id="circle264" />
  </g>
  <g
     style="fill:#4d7fc4;fill-opacity:1;stroke:none"
     id="g270"
     transform="translate(-108.41371,-60.5636)">
    <circle
       cx="147.90221"
       cy="120.6"
       r="0.2"
       id="circle268" />
  </g>
  <g
     style="fill:#4d7fc4;fill-opacity:1;stroke:none"
     id="g274"
     transform="translate(-108.41371,-60.5636)">
    <circle
       cx="130.40221"
       cy="89.300003"
       r="0.2"
       id="circle272" />
  </g>
  <g
     style="fill:#4d7fc4;fill-opacity:1;stroke:none"
     id="g278"
     transform="translate(-108.41371,-60.5636)">
    <circle
       cx="150.40221"
       cy="104.9"
       r="0.2"
       id="circle276" />
  </g>
  <g
     style="fill:#4d7fc4;fill-opacity:1;stroke:none"
     id="g282"
     transform="translate(-108.41371,-60.5636)">
    <circle
       cx="145.5022"
       cy="113.6"
       r="0.2"
       id="circle280" />
  </g>
  <g
     style="fill:#4d7fc4;fill-opacity:1;stroke:none"
     id="g286"
     transform="translate(-108.41371,-60.5636)">
    <circle
       cx="143.40221"
       cy="100.9"
       r="0.2"
       id="circle284" />
  </g>
  <g
     style="fill:#4d7fc4;fill-opacity:1;stroke:none"
     id="g290"
     transform="translate(-108.41371,-60.5636)">
    <circle
       cx="145.40221"
       cy="109.1"
       r="0.2"
       id="circle288" />
  </g>
  <g
     style="fill:#4d7fc4;fill-opacity:1;stroke:none"
     id="g294"
     transform="translate(-108.41371,-60.5636)">
    <circle
       cx="149.8022"
       cy="103.2"
       r="0.2"
       id="circle292" />
  </g>
  <g
     style="fill:#4d7fc4;fill-opacity:1;stroke:none"
     id="g298"
     transform="translate(-108.41371,-60.5636)">
    <circle
       cx="162.5022"
       cy="88"
       r="0.2"
       id="circle296" />
  </g>
  <g
     style="fill:#4d7fc4;fill-opacity:1;stroke:none"
     id="g302"
     transform="translate(-108.41371,-60.5636)">
    <circle
       cx="162.5022"
       cy="90.099998"
       r="0.2"
       id="circle300" />
  </g>
  <g
     style="fill:#4d7fc4;fill-opacity:1;stroke:none"
     id="g306"
     transform="translate(-108.41371,-60.5636)">
    <circle
       cx="153.5694"
       cy="91.867203"
       r="0.2"
       id="circle304" />
  </g>
  <g
     style="fill:#4d7fc4;fill-opacity:1;stroke:none"
     id="g310"
     transform="translate(-108.41371,-60.5636)">
    <circle
       cx="162.70219"
       cy="114.3"
       r="0.2"
       id="circle308" />
  </g>
  <g
     style="fill:#4d7fc4;fill-opacity:1;stroke:none"
     id="g314"
     transform="translate(-108.41371,-60.5636)">
    <circle
       cx="154.40221"
       cy="99.300003"
       r="0.2"
       id="circle312" />
  </g>
  <g
     style="fill:#4d7fc4;fill-opacity:1;stroke:none"
     id="g318"
     transform="translate(-108.41371,-60.5636)">
    <circle
       cx="161.8022"
       cy="85.699997"
       r="0.2"
       id="circle316" />
  </g>
  <g
     style="fill:none;stroke:#4d7fc4;stroke-width:0.2;stroke-linecap:round;stroke-linejoin:round;stroke-opacity:1"
     id="g332"
     transform="translate(-108.41371,-60.5636)">
    <path
       d="m 159.6022,115 v -9.0858"
       id="path320" />
    <path
       d="m 159.6022,105.9142 -7.2,-7.2"
       id="path322" />
    <path
       d="M 152.4022,98.7142 V 91.7"
       id="path324" />
    <path
       d="m 161.9022,107.7899 -8.9,-8.9"
       id="path326" />
    <path
       d="M 153.0022,98.8899 V 91.8"
       id="path328" />
    <path
       d="m 161.9022,113.7 v -5.9101"
       id="path330" />
  </g>
  <g
     style="fill:none;stroke:#4d7fc4;stroke-width:0.3048;stroke-linecap:round;stroke-linejoin:round;stroke-opacity:1"
     id="g338"
     transform="translate(-108.41371,-60.5636)">
    <path
       d="m 145.4022,107.6 v 1.5"
       id="path334" />
    <path
       d="m 149.8022,103.2 -4.4,4.4"
       id="path336" />
  </g>
  <g
     style="fill:none;stroke:#4d7fc4;stroke-width:0.2;stroke-linecap:round;stroke-linejoin:round;stroke-opacity:1"
     id="g342"
     transform="translate(-108.41371,-60.5636)">
    <path
       d="m 162.5022,85.8343 -15.413,-15.413"
       id="path340" />
  </g>
  <g
     style="fill:none;stroke:#4d7fc4;stroke-width:0.3048;stroke-linecap:round;stroke-linejoin:round;stroke-opacity:1"
     id="g346"
     transform="translate(-108.41371,-60.5636)">
    <path
       d="M 162.5022,90.1 V 88"
       id="path344" />
  </g>
  <g
     style="fill:none;stroke:#4d7fc4;stroke-width:0.2;stroke-linecap:round;stroke-linejoin:round;stroke-opacity:1"
     id="g358"
     transform="translate(-108.41371,-60.5636)">
    <path
       d="M 147.0892,70.4213 V 64.1386"
       id="path348" />
    <path
       d="M 162.5022,88 V 85.8343"
       id="path350" />
    <path
       d="M 153.5694,99.0328 V 91.8672"
       id="path352" />
    <path
       d="m 162.7022,114.3 v -6.1343"
       id="path354" />
    <path
       d="m 162.7022,108.1657 -9.1328,-9.1329"
       id="path356" />
  </g>
  <g
     style="fill:none;stroke:#4d7fc4;stroke-width:0.15;stroke-linecap:round;stroke-linejoin:round;stroke-opacity:1"
     id="g366"
     transform="translate(-108.41371,-60.5636)">
    <path
       d="M 154.4022,99.3 V 93.1"
       id="path360" />
    <path
       d="m 154.4022,93.1 7.4,-7.4"
       id="path362" />
    <path
       style="fill:#4d7fc4;fill-opacity:1;fill-rule:evenodd;stroke:none"
       d="m 154.1462,63.9083 -0.0458,0.0528 -0.0112,0.0515 v 0.126 h -0.126 l -0.067,0.0197 -0.0458,0.0528 -0.0112,0.0515 v 2.526 h -0.1478 v 0 l -0.0596,-0.0064 v 0 l -0.1347,-0.0503 v 0 l -0.1151,-0.0861 v 0 l -0.0861,-0.1151 -0.004,-0.0109 -0.0419,-0.056 -0.0655,-0.0244 -0.009,-3e-4 h -0.4512 l -0.0439,-0.0087 v 0 0 l -0.0224,-0.015 -0.0667,-0.0209 -0.0674,0.0185 -0.004,0.0024 -0.0224,0.015 v 0 l -0.0439,0.0087 v 0 h -0.7296 l -0.0439,-0.0087 v 0 0 l -0.0224,-0.015 -0.0667,-0.0209 -0.0674,0.0185 -0.004,0.0024 -0.0224,0.015 v 0 l -0.0439,0.0087 v 0 h -0.7296 l -0.0439,-0.0087 v 0 0 l -0.0224,-0.015 -0.0667,-0.0209 -0.0674,0.0185 -0.004,0.0024 -0.0224,0.015 v 0 l -0.0439,0.0087 v 0 h -0.4903 l -0.067,0.0197 -0.0458,0.0528 -0.0112,0.0515 v 1.6791 l -0.0341,0.2044 -0.0673,0.196 v 0 l -0.0986,0.1823 v 0 l -0.1273,0.1635 v 0 0 0 l -0.0568,0.0523 -0.0957,0.0881 -0.1735,0.1133 -0.1898,0.0833 -0.2009,0.0509 -0.0688,0.0057 -0.1377,0.0114 v 0 0 l -0.1239,-0.0103 -0.0826,-0.0068 -0.2009,-0.0509 -0.1898,-0.0833 -0.1735,-0.1133 -0.1525,-0.1404 -0.1273,-0.1635 -0.0986,-0.1823 -0.0673,-0.196 -0.0341,-0.2044 V 68.1386 68.091 66.5631 l -0.0197,-0.067 -0.0528,-0.0458 -0.0515,-0.0112 h -0.4903 l -0.0439,-0.0087 v 0 0 l -0.0224,-0.015 -0.0667,-0.0209 -0.0674,0.0185 -0.004,0.0024 -0.0224,0.015 v 0 l -0.0439,0.0087 v 0 h -0.7296 l -0.0439,-0.0087 v 0 0 l -0.0224,-0.015 -0.0667,-0.0209 -0.0674,0.0185 -0.004,0.0024 -0.0224,0.015 v 0 l -0.0439,0.0087 v 0 h -0.7296 l -0.0439,-0.0087 v 0 0 l -0.0224,-0.015 -0.0667,-0.0209 -0.0674,0.0185 -0.004,0.0024 -0.0224,0.015 v 0 l -0.0439,0.0087 v 0 h -0.7296 l -0.0439,-0.0087 v 0 0 l -0.0224,-0.015 -0.0667,-0.0209 -0.0674,0.0185 -0.004,0.0024 -0.0224,0.015 v 0 l -0.0439,0.0087 v 0 h -0.7296 l -0.0439,-0.0087 v 0 0 l -0.0224,-0.015 -0.0667,-0.0209 -0.0674,0.0185 -0.004,0.0024 -0.0224,0.015 v 0 l -0.0439,0.0087 v 0 h -0.7296 l -0.0439,-0.0087 v 0 0 l -0.0224,-0.015 -0.0667,-0.0209 -0.0674,0.0185 -0.004,0.0024 -0.0224,0.015 v 0 l -0.0439,0.0087 v 0 h -0.5903 l -0.067,0.0197 -0.0458,0.0528 -0.0112,0.0515 v 2.1213 l -0.003,0.0121 -0.003,0.0226 -7e-4,-1e-4 -6e-4,0.0061 v 0 0 l -0.0307,0.1547 -0.0604,0.1456 v 0 0 l -0.0876,0.1311 v 0 l -0.1115,0.1115 v 0 l -0.1311,0.0876 -0.1457,0.0604 -0.1546,0.0307 h -0.0293 v 0 h -0.01 -0.0396 v 0 h -0.0476 v 0 h -0.01 -1e-4 -1.768 v 0 h -0.006 l -2e-4,10e-5 h -0.0512 v 0 l -0.0223,-10e-5 h -0.0172 -0.008 -3e-4 -0.0398 v 0 0 l -0.0512,-0.007 -0.1231,-0.0167 -0.107,-0.0296 -0.0625,-0.0173 -0.002,-8e-4 -0.1598,-0.0686 -0.1508,-0.0904 -0.1373,-0.11 -0.0275,-0.0288 -3e-4,-4e-4 -0.0487,-0.0511 v 0 l -0.017,-0.0178 v 0 l -0.0164,-0.0173 v 0 l -0.192,-0.2018 -0.1408,-0.148 -0.0605,-0.035 -0.0698,0.0032 -0.0569,0.0405 -0.0261,0.0648 -5e-4,0.0111 -0.008,1.1743 h -15.2151 l -0.067,0.0197 -0.0458,0.0528 -0.005,0.0144 -6.8368,21.8228 -4.3638,13.9292 -0.001,0.0699 0.0367,0.0594 0.0631,0.0302 0.0198,0.002 h 10.0157 l 0.0978,15.5532 0.0201,0.0669 0.0475,0.0427 0.1442,0.0737 0.097,0.0495 0.01,0.004 0.2396,0.0975 0.0473,0.009 59.9743,-0.2964 0.0669,-0.02 0.0455,-0.053 0.011,-0.0502 0.001,-0.1935 0.0116,-1.8125 h -25.0536 v 0.2436 h -0.65 v 0.5 h 0.65 v 0.2436 l -0.0365,0.1835 v 0 l -0.0716,0.1729 v 0 l -0.104,0.1556 v 0 l -0.1323,0.1323 v 0 l -0.1556,0.104 v 0 l -0.1729,0.0716 v 0 l -0.0271,0.005 v -0.7519 l -0.01,0.0172 -0.0559,0.0559 -0.0684,0.0395 -0.0763,0.0204 h -0.079 l -0.0763,-0.0204 -0.0684,-0.0395 -0.0559,-0.0559 -0.01,-0.0172 v 0.7519 l -0.0271,-0.005 v 0 l -0.1729,-0.0716 v 0 l -0.1556,-0.104 v 0 l -0.1323,-0.1323 v 0 l -0.104,-0.1556 v 0 l -0.0716,-0.1729 v 0 l -0.0365,-0.1835 v 0 -0.2436 h 0.65 v -0.5 h -0.65 v -0.2436 0 h -6.74 v 0.2436 h -0.65 v 0.5 h 0.65 v 0.2436 l -0.0365,0.1835 v 0 l -0.0716,0.1729 v 0 l -0.104,0.1556 v 0 l -0.1323,0.1323 v 0 l -0.1556,0.104 v 0 l -0.1729,0.0716 v 0 l -0.0271,0.005 v -0.7519 l -0.01,0.0172 -0.0559,0.0559 -0.0684,0.0395 -0.0763,0.0204 h -0.079 l -0.0763,-0.0204 -0.0684,-0.0395 -0.0559,-0.0559 -0.01,-0.0172 v 0.7519 l -0.0271,-0.005 v 0 l -0.1729,-0.0716 v 0 l -0.1556,-0.104 v 0 l -0.1323,-0.1323 v 0 l -0.104,-0.1556 v 0 l -0.0716,-0.1729 v 0 l -0.0365,-0.1835 v 0 -0.2436 h 0.65 v -0.5 h -0.65 v -0.2436 0 l 0.0365,-0.1835 v 0 l 0.0716,-0.1729 v 0 l 0.104,-0.1556 v 0 l 0.1323,-0.1323 v 0 l 0.1556,-0.104 v 0 l 0.1729,-0.0716 v 0 l 0.0271,-0.005 v 0.7519 l 0.01,-0.0172 0.0559,-0.0559 0.0684,-0.0395 0.0763,-0.0204 h 0.079 l 0.0763,0.0204 0.0684,0.0395 0.0559,0.0559 0.01,0.0172 v -0.7519 0 l 0.0271,0.005 v 0 l 0.1729,0.0716 v 0 l 0.1556,0.104 v 0 l 0.1323,0.1323 v 0 l 0.104,0.1556 v 0 l 0.0716,0.1729 v 0 l 0.0365,0.1835 h 6.74 l 0.0365,-0.1835 v 0 l 0.0716,-0.1729 v 0 l 0.104,-0.1556 v 0 l 0.1323,-0.1323 v 0 l 0.1556,-0.104 v 0 l 0.1729,-0.0716 v 0 l 0.0271,-0.005 v 0.7519 l 0.01,-0.0172 0.0559,-0.0559 0.0684,-0.0395 0.0763,-0.0204 h 0.079 l 0.0763,0.0204 0.0684,0.0395 0.0559,0.0559 0.01,0.0172 v -0.7519 0 l 0.0271,0.005 v 0 l 0.1729,0.0716 v 0 l 0.1556,0.104 v 0 l 0.1323,0.1323 v 0 l 0.104,0.1556 v 0 l 0.0716,0.1729 v 0 l 0.0365,0.1835 h 25.0536 l 0.022,-3.4529 h -3.1851 v 1.563 l -0.0108,0.0682 -0.004,0.0256 -0.0575,0.113 h -10e-5 v 0 l -0.0897,0.0897 v 0 0 l -0.113,0.0576 v 0 l -0.0938,0.0149 v 0 h -1.263 l -0.0938,-0.0149 -0.113,-0.0576 -0.0897,-0.0897 -0.0576,-0.113 v 0 0 l -0.0107,-0.0672 -0.004,-0.0266 v -0.533 h -0.499 l -0.0384,0.1933 h -1e-4 l -0.0754,0.1821 v 0 l -0.1095,0.1639 v 0 l -0.1393,0.1393 v 0 l -0.1639,0.1095 v 0 l -0.1821,0.0754 v 1e-4 0 0 l -0.1933,0.0384 v 0 h -0.197 l -0.1301,-0.0259 -0.0632,-0.0125 -0.1821,-0.0755 -0.1639,-0.1095 -0.1393,-0.1393 -0.1095,-0.1639 -0.0755,-0.1821 -0.0384,-0.1933 v -0.497 0 l 0.0384,-0.1933 v 0 0 l 0.0127,-0.0305 0.0628,-0.1516 v 0 l 0.1095,-0.1639 v 0 l 0.1393,-0.1393 v 0 l 0.1639,-0.1095 v 0 l 0.1821,-0.0755 v 0 l 0.1933,-0.0384 v 0 h 0.197 v 0 l 0.1933,0.0384 v 0 l 0.1821,0.0755 v 0 l 0.1639,0.1095 v 0 l 0.1393,0.1393 v 0 l 0.1095,0.1639 v 0 l 0.0754,0.1821 h 1e-4 l 0.0384,0.1933 v 0 0.497 0 0 h 0.499 v -1.03 l 0.0149,-0.0938 0.0576,-0.113 v 0 0 l 0.0897,-0.0897 v 0 -1e-4 l 0.0768,-0.0391 0.0362,-0.0184 0.0938,-0.0149 h 1.263 l 0.081,0.0128 0.0128,0.002 0.113,0.0575 v 10e-5 0 l 0.0897,0.0897 v 0 l 0.0576,0.113 0.0149,0.0938 h 3.1851 l 0.0103,-1.6185 h -17.891 v 0 l -0.0174,0.1097 -0.0504,0.0989 v 0 l -0.0785,0.0785 v 0 0 l -0.0989,0.0504 v 0 l -0.1097,0.0174 v 0 0 l -0.1097,-0.0174 v 0 0 l -0.0989,-0.0504 -0.0785,-0.0785 -0.0504,-0.0989 v 0 0 L 162.3473,114.3 v 0 l 0.0174,-0.1097 0.005,-0.01 0.0453,-0.089 v 0 0 l 3e-4,-3e-4 2e-4,-4e-4 0.005,-0.007 -9e-4,-7e-4 0.029,-0.053 0.003,-0.0263 v -0.0934 l -0.0197,-0.0671 -0.0528,-0.0457 -0.0691,-0.01 -0.0636,0.0291 -0.0293,0.0374 -0.0279,0.0548 v 0 l -0.0785,0.0785 v 0 0 l -0.0989,0.0504 v 0 l -0.1097,0.0174 v 0 0 l -0.1097,-0.0174 v 0 0 l -0.0989,-0.0504 -0.0785,-0.0785 -0.0504,-0.0989 v 0 0 L 161.5473,113.7 v 0 l 0.0174,-0.1097 0.0225,-0.0441 0.0279,-0.0548 v 0 0 l 3e-4,-3e-4 2e-4,-4e-4 0.005,-0.007 -9e-4,-7e-4 0.029,-0.053 0.003,-0.0263 v -5.4584 l -0.0197,-0.0671 -0.0166,-0.0206 -1.551,-1.551 -0.0613,-0.0335 -0.0697,0.005 -0.056,0.0419 -0.0244,0.0654 -3e-4,0.009 v 8.3094 l 0.0197,0.067 0.0166,0.0206 3e-4,3e-4 v 0 l 0.0504,0.0989 0.0174,0.1097 v 0 l -0.0174,0.1097 -0.0504,0.0989 v 0 l -0.0785,0.0785 v 0 0 l -0.0989,0.0504 v 0 l -0.1097,0.0174 v 0 0 l -0.1097,-0.0174 v 0 0 l -0.0989,-0.0504 -0.0785,-0.0785 -0.0504,-0.0989 v 0 0 l -0.009,-0.0583 h -3.3933 v 0.3936 h -0.65 v 0.5 h 0.65 v 0.3936 l -0.0365,0.1835 v 0 l -0.0716,0.1729 v 0 l -0.104,0.1556 v 0 l -0.1323,0.1323 v 0 l -0.1556,0.104 v 0 l -0.1729,0.0716 v 0 l -0.0271,0.005 v -0.7519 l -0.01,0.0172 -0.0559,0.0559 -0.0684,0.0395 -0.0763,0.0204 h -0.079 l -0.0763,-0.0204 -0.0684,-0.0395 -0.0559,-0.0559 -0.01,-0.0172 v 0.7519 l -0.0271,-0.005 v 0 l -0.1729,-0.0716 v 0 l -0.1556,-0.104 v 0 l -0.1323,-0.1323 v 0 l -0.104,-0.1556 v 0 l -0.0716,-0.1729 v 0 l -0.004,-0.0204 -0.0324,-0.0619 -0.0607,-0.0346 -0.0698,0.004 -0.0464,0.0292 -0.0573,0.0573 -0.0913,0.0527 -0.1019,0.0273 v 0 h -0.1054 v 0 l -0.1019,-0.0273 -0.0913,-0.0527 -0.0746,-0.0746 -0.0527,-0.0913 -0.0273,-0.1019 v -0.1054 h -4.979 v 0.1054 l -0.0273,0.1019 -0.0527,0.0913 -0.0746,0.0746 -0.0913,0.0527 -0.1019,0.0273 v 0 h -0.1054 v 0 l -0.1019,-0.0273 -0.0913,-0.0527 -0.0573,-0.0573 -0.0613,-0.0334 -0.0697,0.005 -0.0559,0.0419 -0.0224,0.0501 -0.004,0.0204 v 0 l -0.0716,0.1729 v 0 l -0.104,0.1556 v 0 l -0.1323,0.1323 v 0 l -0.1556,0.104 v 0 l -0.1729,0.0716 v 0 l -0.0271,0.005 v -0.7519 l -0.01,0.0172 -0.0559,0.0559 -0.0684,0.0395 -0.0763,0.0204 h -0.079 l -0.0763,-0.0204 -0.0684,-0.0395 -0.0559,-0.0559 -0.01,-0.0172 v 0.7519 l -0.0271,-0.005 v 0 l -0.1729,-0.0716 v 0 l -0.1556,-0.104 v 0 l -0.1323,-0.1323 v 0 l -0.104,-0.1556 v 0 l -0.0716,-0.1729 v 0 l -0.0365,-0.1835 v 0 -0.3936 h 0.65 v -0.5 h -0.65 v -0.3936 0 l 0.0365,-0.1835 v 0 l 0.0716,-0.1729 v 0 l 0.104,-0.1556 v 0 l 0.1323,-0.1323 v 0 l 0.1556,-0.104 v 0 l 0.1729,-0.0716 v 0 l 0.0271,-0.005 v 0.7519 l 0.01,-0.0172 0.0559,-0.0559 0.0684,-0.0395 0.0763,-0.0204 h 0.079 l 0.0763,0.0204 0.0684,0.0395 0.0559,0.0559 0.01,0.0172 v -0.7519 0 l 0.0271,0.005 v 0 l 0.1729,0.0716 v 0 l 0.1556,0.104 v 0 l 0.1323,0.1323 v 0 l 0.104,0.1556 v 0 l 0.0716,0.1729 v 0 l 0.0365,0.1835 v 0.3936 h -0.65 v 0.5 h 0.6632 l 0.0322,0.0176 0.0697,-0.005 0.0444,-0.0285 0.0746,-0.0746 v 0 l 0.0913,-0.0527 0.1019,-0.0273 h 0.1054 l 0.1019,0.0273 v 0 l 0.0913,0.0527 0.0746,0.0746 0.0527,0.0913 v 0 l 0.0273,0.1019 h 4.979 l 0.0273,-0.1019 0.0527,-0.0913 0.0746,-0.0746 0.0913,-0.0527 0.1019,-0.0273 h 0.1054 l 0.1019,0.0273 v 0 l 0.0913,0.0527 0.0746,0.0746 0.0613,0.0335 0.0697,-0.005 0.0197,-0.0126 h 0.6588 v -0.5 h -0.65 v -0.3936 0 l 0.0365,-0.1835 v 0 l 0.0716,-0.1729 v 0 l 0.104,-0.1556 v 0 l 0.1323,-0.1323 v 0 l 0.1556,-0.104 v 0 l 0.1729,-0.0716 v 0 l 0.0271,-0.005 v 0.7519 l 0.01,-0.0172 0.0559,-0.0559 0.0684,-0.0395 0.0763,-0.0204 h 0.079 l 0.0763,0.0204 0.0684,0.0395 0.0559,0.0559 0.01,0.0172 v -0.7519 0 l 0.0271,0.005 v 0 l 0.1729,0.0716 v 0 l 0.1556,0.104 v 0 l 0.1323,0.1323 v 0 l 0.104,0.1556 v 0 l 0.0716,0.1729 v 0 l 0.0365,0.1835 h 3.3933 L 159.2473,115 v 0 l 0.0174,-0.1097 0.0231,-0.0453 0.0273,-0.0536 v 0 0 l 3e-4,-3e-4 2e-4,-4e-4 0.005,-0.007 -9e-4,-7e-4 0.029,-0.053 0.003,-0.0263 v -8.6342 l -0.0197,-0.067 -0.0166,-0.0206 -2.7817,-2.7817 h -6.3766 v 0 l -0.0174,0.1097 -0.0504,0.0989 v 0 l -0.0785,0.0785 v 0 0 l -0.0989,0.0504 -0.009,0.004 4e-4,8e-4 -0.0406,0.0249 -4.1216,4.1215 -0.0335,0.0614 -0.003,0.0263 v 1.1159 l 0.0135,0.0563 0.0211,0.0413 0.0174,0.1097 v 0 l -0.0174,0.1097 -0.0504,0.0989 v 0 l -0.0785,0.0785 v 0 0 l -0.0925,0.0471 -0.006,0.003 -0.1097,0.0174 v 0 0 l -0.1097,-0.0174 v 0 0 l -0.0989,-0.0504 -0.0785,-0.0785 -0.0504,-0.0989 v 0 0 L 145.0473,109.1 v 0 l 0.0174,-0.1097 0.0211,-0.0413 0.0135,-0.0563 v -1.2428 0 -0.0898 0 l 0.0206,-0.077 0.0399,-0.0691 0.0564,-0.0564 v 0 l 0.004,-0.004 h 1e-4 l 4.214,-4.2141 0.0249,-0.0406 8e-4,4e-4 0.004,-0.009 0.0504,-0.0989 v 0 0 l 0.0785,-0.0785 v 0 0 l 0.004,-0.002 0.095,-0.0484 0.1097,-0.0174 v 0 l 0.1097,0.0174 0.0989,0.0504 v 0 l 0.0785,0.0785 v 0 l 0.0504,0.0989 0.0174,0.1097 h 6.3766 l -4.256,-4.256 v 0 l -0.0174,-0.0174 v 0 l -0.0705,-0.0705 -0.0305,-0.0738 v 0 0 l -0.008,-0.0183 v 0 -0.0996 -0.01 0 -6.6579 l -0.0197,-0.067 -0.0166,-0.0206 -3e-4,-3e-4 -0.0504,-0.0989 v 0 0 L 152.0473,91.7 v 0 l 0.0174,-0.1097 0.0118,-0.0232 0.0386,-0.0757 v 0 0 l 0.0785,-0.0785 v 0 0 l 0.004,-0.002 0.095,-0.0484 0.1097,-0.0174 v 0 l 0.1097,0.0174 0.0989,0.0504 v 0 l 0.0642,0.0643 0.0614,0.0334 0.0697,-0.0049 0.0129,-0.0057 0.0735,-0.0375 0.1097,-0.0174 v 0 l 0.1097,0.0174 0.0989,0.0504 v 0 l 0.0314,0.0314 0.0613,0.0335 0.0697,-0.005 0.013,-0.0057 0.0735,-0.0374 v 0 0 l 0.1097,-0.0174 v 0 l 0.1096,0.0174 0.0989,0.0504 h 1e-4 l 0.0784,0.0785 h 10e-5 l 0.0504,0.0989 0.0173,0.1097 v 0 l -0.0173,0.1096 -0.0504,0.0989 v 0 l -3e-4,3e-4 -2e-4,4e-4 -0.005,0.0072 9e-4,7e-4 -0.0289,0.053 -0.003,0.0264 v 6.714 l 0.0196,0.0671 0.0167,0.0206 0.1048,0.1048 0.0613,0.0335 0.0697,-0.005 0.0443,-0.0285 0.004,-0.0041 0.0335,-0.0613 0.003,-0.0263 v -5.9234 0 l 0.0343,-0.0828 0.0635,-0.0635 7.1376,-7.1376 0.0335,-0.0613 0.001,-0.007 4e-4,-0.0029 0.004,-0.0265 0.0132,-0.0832 v 0 0 l 0.0504,-0.0989 v 0 0 l 0.0785,-0.0785 v 0 0 l 0.004,-0.002 0.095,-0.0484 0.1097,-0.0174 v 0 l 0.1097,0.0174 0.0989,0.0504 v 0 l 0.0785,0.0785 v 0 l 0.0504,0.0989 0.0174,0.1097 v 0 l -0.0174,0.1097 -0.0504,0.0989 v 0 l -0.0785,0.0785 v 0 0 l -0.0989,0.0504 v 0 0 0 l -0.0886,0.014 -0.0211,0.0034 v 0 l -0.003,4e-4 -0.0632,0.03 -0.005,0.0048 -7.067,7.067 -0.0335,0.0613 -0.003,0.0264 v 5.7337 l 0.0197,0.067 0.0166,0.0206 0.0253,0.0253 v 0 l 0.0504,0.0989 0.0174,0.1097 v 0 l -0.0174,0.1097 -0.0504,0.0989 v 0 l -0.0573,0.0573 -0.0335,0.0613 0.005,0.0697 0.0285,0.0443 8.2121,8.2121 0.0705,0.0705 v 0 l 0.0381,0.0921 v 5.8876 l 0.0197,0.067 0.0166,0.0206 3e-4,3e-4 v 0 l 0.0504,0.0989 0.0174,0.1097 h 17.891 l 0.0541,-8.5 h 10.0587 l 0.067,-0.0197 0.0458,-0.0528 0.01,-0.0691 -0.004,-0.0195 L 185.6532,88 h -22.7961 v 0 l -0.0174,0.1097 -0.0211,0.0413 -0.0135,0.0563 v 1.6854 l 0.0135,0.0563 0.0211,0.0413 0.0174,0.1097 v 0 l -0.0174,0.1097 -0.0504,0.0989 v 0 l -0.0785,0.0785 v 0 0 l -0.0989,0.0504 v 0 l -0.1097,0.0174 v 0 0 l -0.1097,-0.0174 v 0 0 l -0.0989,-0.0504 -0.0785,-0.0785 -0.0504,-0.0989 v 0 0 L 162.1473,90.1 v 0 l 0.0174,-0.1097 0.0211,-0.0413 0.0135,-0.0563 v -1.6854 l -0.0135,-0.0563 -0.0211,-0.0413 v 0 0 L 162.1473,88 v 0 l 0.0174,-0.1097 v 0 l 0.0504,-0.0989 v 0 0 l 0.0785,-0.0785 v 0 0 l 0.004,-0.002 0.095,-0.0484 0.1097,-0.0174 v 0 l 0.1097,0.0174 0.0989,0.0504 v 0 l 0.0785,0.0785 v 0 l 0.0504,0.0989 0.0174,0.1097 h 22.7961 L 180.01,69.9869 179.9711,69.9288 179.9071,69.901 179.8916,69.9 h -15.2894 v -1.104 l -0.0197,-0.067 -0.0528,-0.0458 -0.0691,-0.0099 -0.0636,0.029 -0.009,0.0082 -0.0738,0.0776 -0.2403,0.2526 -4e-4,3e-4 -0.0576,0.0612 -0.1377,0.1113 -0.0903,0.0546 -0.0612,0.037 -0.047,0.0203 -0.1155,0.0499 -0.1705,0.0475 -0.1754,0.024 v 0 0 l -0.0797,-10e-5 h -0.009 -1.8318 l -1e-4,10e-5 h -0.0513 v 0 h -0.0788 l -0.1547,-0.0308 -0.1457,-0.0603 -0.1311,-0.0876 -0.1115,-0.1115 -0.0876,-0.1311 -0.0603,-0.1457 -0.0308,-0.1547 v 0 l -6e-4,-0.0061 -8e-4,1e-4 -0.003,-0.0213 -0.004,-0.0134 v -1.7718 l -0.0197,-0.067 -0.0528,-0.0458 -0.0202,-0.0044 -0.007,-0.0068 h -0.5 -0.1478 v 0 l -0.0596,-0.0064 -0.007,-0.0018 -4e-4,0.0014 -0.061,-0.0043 -0.0153,0.0045 -10e-4,2e-4 -0.0596,0.0064 v 0 h -0.1478 -0.5 -0.1478 v 0 l -0.0596,-0.0064 -0.007,-0.0018 -4e-4,0.0014 -0.061,-0.0043 -0.0153,0.0045 -0.001,2e-4 -0.0596,0.0064 v 0 h -0.1478 -0.5 -0.1478 v 0 l -0.0596,-0.0064 -0.007,-0.0018 -4e-4,0.0014 -0.061,-0.0043 -0.0153,0.0045 -0.001,2e-4 -0.0596,0.0064 v 0 h -0.1478 -0.5 -0.1478 v 0 l -0.0596,-0.0064 -0.007,-0.0018 -4e-4,0.0014 -0.061,-0.0043 -0.0153,0.0045 -0.001,2e-4 -0.0596,0.0064 v 0 h -0.1478 -0.5 -0.1478 v 0 l -0.0596,-0.0064 -0.007,-0.0018 -4e-4,0.0014 -0.061,-0.0043 -0.0153,0.0045 -0.001,2e-4 -0.0596,0.0064 v 0 h -0.1478 -0.5 -0.1478 v 0 l -0.0596,-0.0064 -0.007,-0.0018 -4e-4,0.0014 -0.061,-0.0043 -0.0153,0.0045 -0.001,2e-4 -0.0596,0.0064 v 0 h -0.1478 v -2.4 h 0.5 v 2.4 h 0.5 v -2.4 h 0.5 v 2.4 h 0.5 v -2.4 h 0.5 v 2.4 h 0.5 v -2.4 h 0.5 v 2.4 h 0.5 v -2.4 h 0.5 v 2.4 h 0.5 v -2.4 h 0.5 v 2.4 h 0.5 v -2.526 l -0.0197,-0.067 -0.0528,-0.0458 -0.0515,-0.0112 h -0.126 v -0.126 l -0.0197,-0.067 -0.0528,-0.0458 -0.0515,-0.0112 h -5.752 z"
       id="path364" />
  </g>
  <g
     style="fill:#ffffff;fill-opacity:1;stroke:none"
     id="g370"
     transform="translate(-108.41371,-60.5636)">
    <circle
       cx="152.40221"
       cy="91.699997"
       r="0.15000001"
       id="circle368" />
  </g>
  <g
     style="fill:#ffffff;fill-opacity:1;stroke:none"
     id="g374"
     transform="translate(-108.41371,-60.5636)">
    <circle
       cx="159.6022"
       cy="115"
       r="0.15000001"
       id="circle372" />
  </g>
  <g
     style="fill:#ffffff;fill-opacity:1;stroke:none"
     id="g378"
     transform="translate(-108.41371,-60.5636)">
    <circle
       cx="153.0022"
       cy="91.800003"
       r="0.15000001"
       id="circle376" />
  </g>
  <g
     style="fill:#ffffff;fill-opacity:1;stroke:none"
     id="g382"
     transform="translate(-108.41371,-60.5636)">
    <circle
       cx="161.90221"
       cy="113.7"
       r="0.15000001"
       id="circle380" />
  </g>
  <g
     style="fill:#ffffff;fill-opacity:1;stroke:none"
     id="g386"
     transform="translate(-108.41371,-60.5636)">
    <circle
       cx="167.3022"
       cy="119.7"
       r="0.15000001"
       id="circle384" />
  </g>
  <g
     style="fill:#ffffff;fill-opacity:1;stroke:none"
     id="g390"
     transform="translate(-108.41371,-60.5636)">
    <circle
       cx="154.5022"
       cy="117.8"
       r="0.15000001"
       id="circle388" />
  </g>
  <g
     style="fill:#ffffff;fill-opacity:1;stroke:none"
     id="g394"
     transform="translate(-108.41371,-60.5636)">
    <circle
       cx="153.0022"
       cy="105.1"
       r="0.15000001"
       id="circle392" />
  </g>
  <g
     style="fill:#ffffff;fill-opacity:1;stroke:none"
     id="g398"
     transform="translate(-108.41371,-60.5636)">
    <circle
       cx="131.90221"
       cy="118.6"
       r="0.15000001"
       id="circle396" />
  </g>
  <g
     style="fill:#ffffff;fill-opacity:1;stroke:none"
     id="g402"
     transform="translate(-108.41371,-60.5636)">
    <circle
       cx="133.5022"
       cy="118.8"
       r="0.15000001"
       id="circle400" />
  </g>
  <g
     style="fill:#ffffff;fill-opacity:1;stroke:none"
     id="g406"
     transform="translate(-108.41371,-60.5636)">
    <circle
       cx="163.0022"
       cy="118.7"
       r="0.15000001"
       id="circle404" />
  </g>
  <g
     style="fill:#ffffff;fill-opacity:1;stroke:none"
     id="g410"
     transform="translate(-108.41371,-60.5636)">
    <circle
       cx="148.40221"
       cy="85.800003"
       r="0.15000001"
       id="circle408" />
  </g>
  <g
     style="fill:#ffffff;fill-opacity:1;stroke:none"
     id="g414"
     transform="translate(-108.41371,-60.5636)">
    <circle
       cx="146.70219"
       cy="113.6"
       r="0.15000001"
       id="circle412" />
  </g>
  <g
     style="fill:#ffffff;fill-opacity:1;stroke:none"
     id="g418"
     transform="translate(-108.41371,-60.5636)">
    <circle
       cx="138.40221"
       cy="120.5"
       r="0.15000001"
       id="circle416" />
  </g>
  <g
     style="fill:#ffffff;fill-opacity:1;stroke:none"
     id="g422"
     transform="translate(-108.41371,-60.5636)">
    <circle
       cx="148.6022"
       cy="105.9"
       r="0.15000001"
       id="circle420" />
  </g>
  <g
     style="fill:#ffffff;fill-opacity:1;stroke:none"
     id="g426"
     transform="translate(-108.41371,-60.5636)">
    <circle
       cx="166.90221"
       cy="89.599998"
       r="0.15000001"
       id="circle424" />
  </g>
  <g
     style="fill:#ffffff;fill-opacity:1;stroke:none"
     id="g430"
     transform="translate(-108.41371,-60.5636)">
    <circle
       cx="155.6022"
       cy="113.6"
       r="0.15000001"
       id="circle428" />
  </g>
  <g
     style="fill:#ffffff;fill-opacity:1;stroke:none"
     id="g434"
     transform="translate(-108.41371,-60.5636)">
    <circle
       cx="136.40221"
       cy="118.8"
       r="0.15000001"
       id="circle432" />
  </g>
  <g
     style="fill:#ffffff;fill-opacity:1;stroke:none"
     id="g438"
     transform="translate(-108.41371,-60.5636)">
    <circle
       cx="130.40221"
       cy="86.300003"
       r="0.15000001"
       id="circle436" />
  </g>
  <g
     style="fill:#ffffff;fill-opacity:1;stroke:none"
     id="g442"
     transform="translate(-108.41371,-60.5636)">
    <circle
       cx="138.3022"
       cy="118.6"
       r="0.15000001"
       id="circle440" />
  </g>
  <g
     style="fill:#ffffff;fill-opacity:1;stroke:none"
     id="g446"
     transform="translate(-108.41371,-60.5636)">
    <circle
       cx="156.8022"
       cy="97.300003"
       r="0.15000001"
       id="circle444" />
  </g>
  <g
     style="fill:#ffffff;fill-opacity:1;stroke:none"
     id="g450"
     transform="translate(-108.41371,-60.5636)">
    <circle
       cx="169.3022"
       cy="118.6"
       r="0.15000001"
       id="circle448" />
  </g>
  <g
     style="fill:#ffffff;fill-opacity:1;stroke:none"
     id="g454"
     transform="translate(-108.41371,-60.5636)">
    <circle
       cx="155.70219"
       cy="82.099998"
       r="0.15000001"
       id="circle452" />
  </g>
  <g
     style="fill:#ffffff;fill-opacity:1;stroke:none"
     id="g458"
     transform="translate(-108.41371,-60.5636)">
    <circle
       cx="167.3022"
       cy="118.6"
       r="0.15000001"
       id="circle456" />
  </g>
  <g
     style="fill:#ffffff;fill-opacity:1;stroke:none"
     id="g462"
     transform="translate(-108.41371,-60.5636)">
    <circle
       cx="151.90221"
       cy="105.1"
       r="0.15000001"
       id="circle460" />
  </g>
  <g
     style="fill:#ffffff;fill-opacity:1;stroke:none"
     id="g466"
     transform="translate(-108.41371,-60.5636)">
    <circle
       cx="155.5022"
       cy="117.8"
       r="0.15000001"
       id="circle464" />
  </g>
  <g
     style="fill:#ffffff;fill-opacity:1;stroke:none"
     id="g470"
     transform="translate(-108.41371,-60.5636)">
    <circle
       cx="154.8022"
       cy="102.9"
       r="0.15000001"
       id="circle468" />
  </g>
  <g
     style="fill:#ffffff;fill-opacity:1;stroke:none"
     id="g474"
     transform="translate(-108.41371,-60.5636)">
    <circle
       cx="165.1022"
       cy="119.7"
       r="0.15000001"
       id="circle472" />
  </g>
  <g
     style="fill:#ffffff;fill-opacity:1;stroke:none"
     id="g478"
     transform="translate(-108.41371,-60.5636)">
    <circle
       cx="143.40221"
       cy="97.400002"
       r="0.15000001"
       id="circle476" />
  </g>
  <g
     style="fill:#ffffff;fill-opacity:1;stroke:none"
     id="g482"
     transform="translate(-108.41371,-60.5636)">
    <circle
       cx="169.3022"
       cy="120.5"
       r="0.15000001"
       id="circle480" />
  </g>
  <g
     style="fill:#ffffff;fill-opacity:1;stroke:none"
     id="g486"
     transform="translate(-108.41371,-60.5636)">
    <circle
       cx="146.70219"
       cy="118"
       r="0.15000001"
       id="circle484" />
  </g>
  <g
     style="fill:#ffffff;fill-opacity:1;stroke:none"
     id="g490"
     transform="translate(-108.41371,-60.5636)">
    <circle
       cx="163.0022"
       cy="120.5"
       r="0.15000001"
       id="circle488" />
  </g>
  <g
     style="fill:#ffffff;fill-opacity:1;stroke:none"
     id="g494"
     transform="translate(-108.41371,-60.5636)">
    <circle
       cx="139.70219"
       cy="105.8"
       r="0.15000001"
       id="circle492" />
  </g>
  <g
     style="fill:#ffffff;fill-opacity:1;stroke:none"
     id="g498"
     transform="translate(-108.41371,-60.5636)">
    <circle
       cx="147.90221"
       cy="85"
       r="0.15000001"
       id="circle496" />
  </g>
  <g
     style="fill:#ffffff;fill-opacity:1;stroke:none"
     id="g502"
     transform="translate(-108.41371,-60.5636)">
    <circle
       cx="149.5022"
       cy="105.4"
       r="0.15000001"
       id="circle500" />
  </g>
  <g
     style="fill:#ffffff;fill-opacity:1;stroke:none"
     id="g506"
     transform="translate(-108.41371,-60.5636)">
    <circle
       cx="162.8022"
       cy="85.5"
       r="0.15000001"
       id="circle504" />
  </g>
  <g
     style="fill:#ffffff;fill-opacity:1;stroke:none"
     id="g510"
     transform="translate(-108.41371,-60.5636)">
    <circle
       cx="149.20219"
       cy="84.300003"
       r="0.15000001"
       id="circle508" />
  </g>
  <g
     style="fill:#ffffff;fill-opacity:1;stroke:none"
     id="g514"
     transform="translate(-108.41371,-60.5636)">
    <circle
       cx="130.40221"
       cy="95.5"
       r="0.15000001"
       id="circle512" />
  </g>
  <g
     style="fill:#ffffff;fill-opacity:1;stroke:none"
     id="g518"
     transform="translate(-108.41371,-60.5636)">
    <circle
       cx="144.20219"
       cy="89.400002"
       r="0.15000001"
       id="circle516" />
  </g>
  <g
     style="fill:#ffffff;fill-opacity:1;stroke:none"
     id="g522"
     transform="translate(-108.41371,-60.5636)">
    <circle
       cx="150.6022"
       cy="91.300003"
       r="0.15000001"
       id="circle520" />
  </g>
  <g
     style="fill:#ffffff;fill-opacity:1;stroke:none"
     id="g526"
     transform="translate(-108.41371,-60.5636)">
    <circle
       cx="147.90221"
       cy="119.2"
       r="0.15000001"
       id="circle524" />
  </g>
  <g
     style="fill:#ffffff;fill-opacity:1;stroke:none"
     id="g530"
     transform="translate(-108.41371,-60.5636)">
    <circle
       cx="145.6022"
       cy="118"
       r="0.15000001"
       id="circle528" />
  </g>
  <g
     style="fill:#ffffff;fill-opacity:1;stroke:none"
     id="g534"
     transform="translate(-108.41371,-60.5636)">
    <circle
       cx="153.40221"
       cy="120.6"
       r="0.15000001"
       id="circle532" />
  </g>
  <g
     style="fill:#ffffff;fill-opacity:1;stroke:none"
     id="g538"
     transform="translate(-108.41371,-60.5636)">
    <circle
       cx="131.90221"
       cy="120.5"
       r="0.15000001"
       id="circle536" />
  </g>
  <g
     style="fill:#ffffff;fill-opacity:1;stroke:none"
     id="g542"
     transform="translate(-108.41371,-60.5636)">
    <circle
       cx="130.40221"
       cy="83.300003"
       r="0.15000001"
       id="circle540" />
  </g>
  <g
     style="fill:#ffffff;fill-opacity:1;stroke:none"
     id="g546"
     transform="translate(-108.41371,-60.5636)">
    <circle
       cx="165.1022"
       cy="118.6"
       r="0.15000001"
       id="circle544" />
  </g>
  <g
     style="fill:#ffffff;fill-opacity:1;stroke:none"
     id="g550"
     transform="translate(-108.41371,-60.5636)">
    <circle
       cx="130.40221"
       cy="98.5"
       r="0.15000001"
       id="circle548" />
  </g>
  <g
     style="fill:#ffffff;fill-opacity:1;stroke:none"
     id="g554"
     transform="translate(-108.41371,-60.5636)">
    <circle
       cx="154.1022"
       cy="105.1"
       r="0.15000001"
       id="circle552" />
  </g>
  <g
     style="fill:#ffffff;fill-opacity:1;stroke:none"
     id="g558"
     transform="translate(-108.41371,-60.5636)">
    <circle
       cx="130.40221"
       cy="92.400002"
       r="0.15000001"
       id="circle556" />
  </g>
  <g
     style="fill:#ffffff;fill-opacity:1;stroke:none"
     id="g562"
     transform="translate(-108.41371,-60.5636)">
    <circle
       cx="154.3022"
       cy="113.6"
       r="0.15000001"
       id="circle560" />
  </g>
  <g
     style="fill:#ffffff;fill-opacity:1;stroke:none"
     id="g566"
     transform="translate(-108.41371,-60.5636)">
    <circle
       cx="153.40221"
       cy="119.2"
       r="0.15000001"
       id="circle564" />
  </g>
  <g
     style="fill:#ffffff;fill-opacity:1;stroke:none"
     id="g570"
     transform="translate(-108.41371,-60.5636)">
    <circle
       cx="136.40221"
       cy="119.8"
       r="0.15000001"
       id="circle568" />
  </g>
  <g
     style="fill:#ffffff;fill-opacity:1;stroke:none"
     id="g574"
     transform="translate(-108.41371,-60.5636)">
    <circle
       cx="133.5022"
       cy="119.8"
       r="0.15000001"
       id="circle572" />
  </g>
  <g
     style="fill:#ffffff;fill-opacity:1;stroke:none"
     id="g578"
     transform="translate(-108.41371,-60.5636)">
    <circle
       cx="147.90221"
       cy="120.6"
       r="0.15000001"
       id="circle576" />
  </g>
  <g
     style="fill:#ffffff;fill-opacity:1;stroke:none"
     id="g582"
     transform="translate(-108.41371,-60.5636)">
    <circle
       cx="130.40221"
       cy="89.300003"
       r="0.15000001"
       id="circle580" />
  </g>
  <g
     style="fill:#ffffff;fill-opacity:1;stroke:none"
     id="g586"
     transform="translate(-108.41371,-60.5636)">
    <circle
       cx="150.40221"
       cy="104.9"
       r="0.15000001"
       id="circle584" />
  </g>
  <g
     style="fill:#ffffff;fill-opacity:1;stroke:none"
     id="g590"
     transform="translate(-108.41371,-60.5636)">
    <circle
       cx="145.5022"
       cy="113.6"
       r="0.15000001"
       id="circle588" />
  </g>
  <g
     style="fill:#ffffff;fill-opacity:1;stroke:none"
     id="g594"
     transform="translate(-108.41371,-60.5636)">
    <circle
       cx="143.40221"
       cy="100.9"
       r="0.15000001"
       id="circle592" />
  </g>
  <g
     style="fill:#ffffff;fill-opacity:1;stroke:none"
     id="g598"
     transform="translate(-108.41371,-60.5636)">
    <circle
       cx="145.40221"
       cy="109.1"
       r="0.15000001"
       id="circle596" />
  </g>
  <g
     style="fill:#ffffff;fill-opacity:1;stroke:none"
     id="g602"
     transform="translate(-108.41371,-60.5636)">
    <circle
       cx="149.8022"
       cy="103.2"
       r="0.15000001"
       id="circle600" />
  </g>
  <g
     style="fill:#ffffff;fill-opacity:1;stroke:none"
     id="g606"
     transform="translate(-108.41371,-60.5636)">
    <circle
       cx="162.5022"
       cy="88"
       r="0.15000001"
       id="circle604" />
  </g>
  <g
     style="fill:#ffffff;fill-opacity:1;stroke:none"
     id="g610"
     transform="translate(-108.41371,-60.5636)">
    <circle
       cx="162.5022"
       cy="90.099998"
       r="0.15000001"
       id="circle608" />
  </g>
  <g
     style="fill:#ffffff;fill-opacity:1;stroke:none"
     id="g614"
     transform="translate(-108.41371,-60.5636)">
    <circle
       cx="153.5694"
       cy="91.867203"
       r="0.15000001"
       id="circle612" />
  </g>
  <g
     style="fill:#ffffff;fill-opacity:1;stroke:none"
     id="g618"
     transform="translate(-108.41371,-60.5636)">
    <circle
       cx="162.70219"
       cy="114.3"
       r="0.15000001"
       id="circle616" />
  </g>
  <g
     style="fill:#ffffff;fill-opacity:1;stroke:none"
     id="g622"
     transform="translate(-108.41371,-60.5636)">
    <circle
       cx="154.40221"
       cy="99.300003"
       r="0.15000001"
       id="circle620" />
  </g>
  <g
     style="fill:#ffffff;fill-opacity:1;stroke:none"
     id="g626"
     transform="translate(-108.41371,-60.5636)">
    <circle
       cx="161.8022"
       cy="85.699997"
       r="0.15000001"
       id="circle624" />
  </g>
  <g
     style="fill:#ffffff;fill-opacity:1;stroke:none"
     id="g630"
     transform="translate(-108.41371,-60.5636)">
    <circle
       cx="176.7522"
       cy="116.7"
       r="0.5"
       id="circle628" />
  </g>
  <g
     style="fill:#ffffff;fill-opacity:1;stroke:none"
     id="g634"
     transform="translate(-108.41371,-60.5636)">
    <circle
       cx="174.2522"
       cy="116.7"
       r="0.5"
       id="circle632" />
  </g>
  <g
     style="fill:#ffffff;fill-opacity:1;stroke:none"
     id="g638"
     transform="translate(-108.41371,-60.5636)">
    <circle
       cx="153.48219"
       cy="116.175"
       r="0.30000001"
       id="circle636" />
  </g>
  <g
     style="fill:#ffffff;fill-opacity:1;stroke:none"
     id="g642"
     transform="translate(-108.41371,-60.5636)">
    <circle
       cx="147.70219"
       cy="116.175"
       r="0.30000001"
       id="circle640" />
  </g>
  <g
     style="fill:none;stroke:#ffffff;stroke-width:0.6;stroke-linecap:round;stroke-linejoin:round;stroke-opacity:1"
     id="g652"
     transform="translate(-108.41371,-60.5636)">
    <path
       d="m 154.9122,116.245 v -1.1"
       id="path644" />
    <path
       d="m 154.9122,120.265 v -0.8"
       id="path646" />
    <path
       d="m 146.2722,116.245 v -1.1"
       id="path648" />
    <path
       d="m 146.2722,120.265 v -0.8"
       id="path650" />
  </g>
  <g
     style="fill:#ffffff;fill-opacity:1;stroke:none"
     id="g656"
     transform="translate(-108.41371,-60.5636)">
    <circle
       cx="170.5022"
       cy="93"
       r="0.5"
       id="circle654" />
  </g>
  <g
     style="fill:#ffffff;fill-opacity:1;stroke:none"
     id="g660"
     transform="translate(-108.41371,-60.5636)">
    <circle
       cx="178.5022"
       cy="93"
       r="0.5"
       id="circle658" />
  </g>
  <g
     style="fill:#000000;fill-opacity:1;stroke:none"
     id="g664"
     transform="translate(-108.41371,-60.5636)">
    <circle
       cx="176.7522"
       cy="116.7"
       r="0.5"
       id="circle662" />
  </g>
  <g
     style="fill:#000000;fill-opacity:1;stroke:none"
     id="g668"
     transform="translate(-108.41371,-60.5636)">
    <circle
       cx="174.2522"
       cy="116.7"
       r="0.5"
       id="circle666" />
  </g>
  <g
     style="fill:#000000;fill-opacity:1;stroke:none"
     id="g672"
     transform="translate(-108.41371,-60.5636)">
    <circle
       cx="153.48219"
       cy="116.175"
       r="0.30000001"
       id="circle670" />
  </g>
  <g
     style="fill:#000000;fill-opacity:1;stroke:none"
     id="g676"
     transform="translate(-108.41371,-60.5636)">
    <circle
       cx="147.70219"
       cy="116.175"
       r="0.30000001"
       id="circle674" />
  </g>
  <g
     style="fill:none;stroke:#000000;stroke-width:0.6;stroke-linecap:round;stroke-linejoin:round;stroke-opacity:1"
     id="g686"
     transform="translate(-108.41371,-60.5636)">
    <path
       d="m 154.9122,116.245 v -1.1"
       id="path678" />
    <path
       d="m 154.9122,120.265 v -0.8"
       id="path680" />
    <path
       d="m 146.2722,116.245 v -1.1"
       id="path682" />
    <path
       d="m 146.2722,120.265 v -0.8"
       id="path684" />
  </g>
  <g
     style="fill:#000000;fill-opacity:1;stroke:none"
     id="g690"
     transform="translate(-108.41371,-60.5636)">
    <circle
       cx="170.5022"
       cy="93"
       r="0.5"
       id="circle688" />
  </g>
  <g
     style="fill:#000000;fill-opacity:1;stroke:none"
     id="g696"
     transform="translate(-108.41371,-60.5636)">
    <circle
       cx="178.5022"
       cy="93"
       r="0.5"
       id="circle692" />
    <path
       style="fill:#02ffee;fill-opacity:0.4;fill-rule:evenodd;stroke:none"
       d="m 177.6022,115.95 -0.019,-0.0957 -0.0542,-0.0811 -0.0811,-0.0542 -0.0957,-0.019 h -1.2 l -0.0957,0.019 -0.0811,0.0542 -0.0542,0.0811 -0.019,0.0957 v 1.5 l 0.019,0.0957 0.0542,0.0811 0.0811,0.0542 0.0957,0.019 h 1.2 l 0.0957,-0.019 0.0811,-0.0542 0.0542,-0.0811 0.019,-0.0957 z"
       id="path694" />
  </g>
  <g
     style="fill:none;stroke:#02ffee;stroke-width:1.7;stroke-linecap:round;stroke-linejoin:round;stroke-opacity:1"
     id="g700"
     transform="translate(-108.41371,-60.5636)">
    <path
       d="m 174.2522,116.55 v 0.3"
       id="path698" />
  </g>
  <g
     style="fill:#02ffee;fill-opacity:0.4;stroke:none"
     id="g704"
     transform="translate(-108.41371,-60.5636)">
    <circle
       cx="153.48219"
       cy="116.175"
       r="0.30000001"
       id="circle702" />
  </g>
  <g
     style="fill:#02ffee;fill-opacity:0.4;stroke:none"
     id="g708"
     transform="translate(-108.41371,-60.5636)">
    <circle
       cx="147.70219"
       cy="116.175"
       r="0.30000001"
       id="circle706" />
  </g>
  <g
     style="fill:none;stroke:#02ffee;stroke-width:0.9;stroke-linecap:round;stroke-linejoin:round;stroke-opacity:1"
     id="g718"
     transform="translate(-108.41371,-60.5636)">
    <path
       d="m 154.9122,116.245 v -1.1"
       id="path710" />
    <path
       d="m 154.9122,120.265 v -0.8"
       id="path712" />
    <path
       d="m 146.2722,116.245 v -1.1"
       id="path714" />
    <path
       d="m 146.2722,120.265 v -0.8"
       id="path716" />
  </g>
  <g
     style="fill:#02ffee;fill-opacity:0.4;stroke:none"
     id="g722"
     transform="translate(-108.41371,-60.5636)">
    <circle
       cx="170.5022"
       cy="93"
       r="0.5"
       id="circle720" />
  </g>
  <g
     style="fill:#02ffee;fill-opacity:0.4;stroke:none"
     id="g762"
     transform="translate(-108.41371,-60.5636)">
    <circle
       cx="178.5022"
       cy="93"
       r="0.5"
       id="circle724" />
    <path
       style="fill:#02ffee;fill-opacity:0.4;fill-rule:evenodd;stroke:none"
       d="m 160.4392,66.2886 v -4.3 h -0.7 v 4.3 z"
       id="path726" />
    <path
       style="fill:#02ffee;fill-opacity:0.4;fill-rule:evenodd;stroke:none"
       d="m 159.4392,66.2886 v -4.3 h -0.7 v 4.3 z"
       id="path728" />
    <path
       style="fill:#02ffee;fill-opacity:0.4;fill-rule:evenodd;stroke:none"
       d="m 158.4392,66.2886 v -4.3 h -0.7 v 4.3 z"
       id="path730" />
    <path
       style="fill:#02ffee;fill-opacity:0.4;fill-rule:evenodd;stroke:none"
       d="m 157.4392,66.2886 v -4.3 h -0.7 v 4.3 z"
       id="path732" />
    <path
       style="fill:#02ffee;fill-opacity:0.4;fill-rule:evenodd;stroke:none"
       d="m 156.4392,66.2886 v -4.3 h -0.7 v 4.3 z"
       id="path734" />
    <path
       style="fill:#02ffee;fill-opacity:0.4;fill-rule:evenodd;stroke:none"
       d="m 155.4392,66.2886 v -4.3 h -0.7 v 4.3 z"
       id="path736" />
    <path
       style="fill:#02ffee;fill-opacity:0.4;fill-rule:evenodd;stroke:none"
       d="m 154.4392,66.2886 v -4.3 h -0.7 v 4.3 z"
       id="path738" />
    <path
       style="fill:#02ffee;fill-opacity:0.4;fill-rule:evenodd;stroke:none"
       d="m 153.4392,66.2886 v -4.3 h -0.7 v 4.3 z"
       id="path740" />
    <path
       style="fill:#02ffee;fill-opacity:0.4;fill-rule:evenodd;stroke:none"
       d="m 152.4392,66.2886 v -4.3 h -0.7 v 4.3 z"
       id="path742" />
    <path
       style="fill:#02ffee;fill-opacity:0.4;fill-rule:evenodd;stroke:none"
       d="m 151.4392,66.2886 v -4.3 h -0.7 v 4.3 z"
       id="path744" />
    <path
       style="fill:#02ffee;fill-opacity:0.4;fill-rule:evenodd;stroke:none"
       d="m 150.4392,66.2886 v -4.3 h -0.7 v 4.3 z"
       id="path746" />
    <path
       style="fill:#02ffee;fill-opacity:0.4;fill-rule:evenodd;stroke:none"
       d="m 147.4392,66.2886 v -4.3 h -0.7 v 4.3 z"
       id="path748" />
    <path
       style="fill:#02ffee;fill-opacity:0.4;fill-rule:evenodd;stroke:none"
       d="m 146.4392,66.2886 v -4.3 h -0.7 v 4.3 z"
       id="path750" />
    <path
       style="fill:#02ffee;fill-opacity:0.4;fill-rule:evenodd;stroke:none"
       d="m 145.4392,66.2886 v -4.3 h -0.7 v 4.3 z"
       id="path752" />
    <path
       style="fill:#02ffee;fill-opacity:0.4;fill-rule:evenodd;stroke:none"
       d="m 144.4392,66.2886 v -4.3 h -0.7 v 4.3 z"
       id="path754" />
    <path
       style="fill:#02ffee;fill-opacity:0.4;fill-rule:evenodd;stroke:none"
       d="m 143.4392,66.2886 v -4.3 h -0.7 v 4.3 z"
       id="path756" />
    <path
       style="fill:#02ffee;fill-opacity:0.4;fill-rule:evenodd;stroke:none"
       d="m 142.4392,66.2886 v -4.3 h -0.7 v 4.3 z"
       id="path758" />
    <path
       style="fill:#02ffee;fill-opacity:0.4;fill-rule:evenodd;stroke:none"
       d="m 141.4392,66.2886 v -4.3 h -0.7 v 4.3 z"
       id="path760" />
  </g>
  <g
     style="fill:none;stroke:#d0d2cd;stroke-width:0.25;stroke-linecap:round;stroke-linejoin:round;stroke-opacity:1"
     id="g836"
     transform="translate(-108.41371,-60.5636)">
    <path
       d="m 137.3241,68.8355 -6.2057,-6.5229"
       id="path764" />
    <path
       d="m 163.8582,68.8318 6.2022,-6.5192"
       id="path766" />
    <path
       d="m 122.4906,122.42 h 56.1976"
       id="path768" />
    <circle
       cx="113.5889"
       cy="110.0686"
       r="3.3499999"
       id="circle770" />
    <path
       d="m 137.3241,68.8355 a 1.0001,1.0001 0 0 0 0.7245,0.3108"
       id="path772" />
    <path
       d="m 108.7698,108.5589 a 5.05,5.05 0 0 0 1.6165,5.4143"
       id="path774" />
    <path
       d="M 163.1302,69.1462 H 161.247"
       id="path776" />
    <path
       d="m 178.6882,122.42 a 5.05,5.05 0 0 0 3.2026,-1.1454"
       id="path778" />
    <path
       d="m 138.0486,69.1462 h 1.8831"
       id="path780" />
    <path
       d="m 122.6406,64.2837 v 0"
       id="path782" />
    <path
       d="m 110.3863,113.9732 8.9017,7.3013"
       id="path784" />
    <path
       d="m 163.1302,69.1462 a 0.9999,0.9999 0 0 0 0.728,-0.3144"
       id="path786" />
    <path
       d="m 131.1184,62.3126 a 5.0501,5.0501 0 0 0 -8.4779,1.9711"
       id="path788" />
    <path
       d="m 178.5381,64.2837 a 5.05,5.05 0 0 0 -8.4777,-1.9711"
       id="path790" />
    <circle
       cx="187.5898"
       cy="110.0686"
       r="3.3499999"
       id="circle792" />
    <path
       d="m 160.747,68.6463 a 0.5,0.5 0 0 0 0.5,0.5"
       id="path794" />
    <path
       d="m 122.6406,64.2837 -13.8708,44.2752"
       id="path796" />
    <circle
       cx="127.4596"
       cy="65.793503"
       r="3.3499999"
       id="circle798" />
    <circle
       cx="173.7191"
       cy="65.793503"
       r="3.3499999"
       id="circle800" />
    <path
       d="m 190.7924,113.9732 -8.9016,7.3014"
       id="path802" />
    <path
       d="m 178.5381,64.2837 v 0"
       id="path804" />
    <path
       d="m 139.9317,69.1462 a 0.5,0.5 0 0 0 0.5,-0.5"
       id="path806" />
    <path
       d="m 178.5381,64.2837 13.8757,44.2909"
       id="path808" />
    <path
       d="m 190.7924,113.9732 a 5.0502,5.0502 0 0 0 1.6215,-5.3986"
       id="path810" />
    <path
       d="m 119.288,121.2745 a 5.05,5.05 0 0 0 3.2026,1.1455"
       id="path812" />
    <path
       d="m 160.7392,61.1886 v 7.4563"
       id="path814" />
    <path
       d="m 160.2392,60.6886 0.5,0.5"
       id="path816" />
    <path
       d="m 150.0392,60.6886 h 10.2"
       id="path818" />
    <path
       d="m 150.0392,60.6886 -0.5,0.5"
       id="path820" />
    <path
       d="m 149.5392,61.1886 v 6.95"
       id="path822" />
    <path
       d="m 147.6392,61.1886 v 6.95"
       id="path824" />
    <path
       d="m 147.1392,60.6886 0.5,0.5"
       id="path826" />
    <path
       d="m 140.9392,60.6886 h 6.2"
       id="path828" />
    <path
       d="m 140.9392,60.6886 -0.5,0.5"
       id="path830" />
    <path
       d="M 140.4392,68.6449 V 61.1886"
       id="path832" />
    <path
       d="m 147.6392,68.1386 a 0.95,0.95 0 0 0 1.9,0"
       id="path834" />
  </g>
  <g
     style="fill:#d0d2cd;fill-opacity:1;stroke:none"
     id="g840"
     transform="translate(-108.41371,-60.5636)">
    <circle
       cx="176.7522"
       cy="116.7"
       r="0.5"
       id="circle838" />
  </g>
  <g
     style="fill:#d0d2cd;fill-opacity:1;stroke:none"
     id="g844"
     transform="translate(-108.41371,-60.5636)">
    <circle
       cx="174.2522"
       cy="116.7"
       r="0.5"
       id="circle842" />
  </g>
  <g
     style="fill:#d0d2cd;fill-opacity:1;stroke:none"
     id="g848"
     transform="translate(-108.41371,-60.5636)">
    <circle
       cx="153.48219"
       cy="116.175"
       r="0.30000001"
       id="circle846" />
  </g>
  <g
     style="fill:#d0d2cd;fill-opacity:1;stroke:none"
     id="g852"
     transform="translate(-108.41371,-60.5636)">
    <circle
       cx="147.70219"
       cy="116.175"
       r="0.30000001"
       id="circle850" />
  </g>
  <g
     style="fill:none;stroke:#d0d2cd;stroke-width:0.6;stroke-linecap:round;stroke-linejoin:round;stroke-opacity:1"
     id="g862"
     transform="translate(-108.41371,-60.5636)">
    <path
       d="m 154.9122,116.245 v -1.1"
       id="path854" />
    <path
       d="m 154.9122,120.265 v -0.8"
       id="path856" />
    <path
       d="m 146.2722,116.245 v -1.1"
       id="path858" />
    <path
       d="m 146.2722,120.265 v -0.8"
       id="path860" />
  </g>
  <g
     style="fill:#d0d2cd;fill-opacity:1;stroke:none"
     id="g866"
     transform="translate(-108.41371,-60.5636)">
    <circle
       cx="170.5022"
       cy="93"
       r="0.5"
       id="circle864" />
  </g>
  <g
     style="fill:#d0d2cd;fill-opacity:1;stroke:none"
     id="g870"
     transform="translate(-108.41371,-60.5636)">
    <circle
       cx="178.5022"
       cy="93"
       r="0.5"
       id="circle868" />
  </g>
  <g
     style="fill:#ffffff;fill-opacity:1;stroke:none"
     id="g874"
     transform="translate(-108.41371,-60.5636)">
    <circle
       cx="176.7522"
       cy="116.7"
       r="0.5"
       id="circle872" />
  </g>
  <g
     style="fill:#ffffff;fill-opacity:1;stroke:none"
     id="g878"
     transform="translate(-108.41371,-60.5636)">
    <circle
       cx="174.2522"
       cy="116.7"
       r="0.5"
       id="circle876" />
  </g>
  <g
     style="fill:#ffffff;fill-opacity:1;stroke:none"
     id="g882"
     transform="translate(-108.41371,-60.5636)">
    <circle
       cx="153.48219"
       cy="116.175"
       r="0.30000001"
       id="circle880" />
  </g>
  <g
     style="fill:#ffffff;fill-opacity:1;stroke:none"
     id="g886"
     transform="translate(-108.41371,-60.5636)">
    <circle
       cx="147.70219"
       cy="116.175"
       r="0.30000001"
       id="circle884" />
  </g>
  <g
     style="fill:none;stroke:#ffffff;stroke-width:0.6;stroke-linecap:round;stroke-linejoin:round;stroke-opacity:1"
     id="g896"
     transform="translate(-108.41371,-60.5636)">
    <path
       d="m 154.9122,116.245 v -1.1"
       id="path888" />
    <path
       d="m 154.9122,120.265 v -0.8"
       id="path890" />
    <path
       d="m 146.2722,116.245 v -1.1"
       id="path892" />
    <path
       d="m 146.2722,120.265 v -0.8"
       id="path894" />
  </g>
  <g
     style="fill:#ffffff;fill-opacity:1;stroke:none"
     id="g900"
     transform="translate(-108.41371,-60.5636)">
    <circle
       cx="170.5022"
       cy="93"
       r="0.5"
       id="circle898" />
  </g>
  <g
     style="fill:#ffffff;fill-opacity:1;stroke:none"
     id="g904"
     transform="translate(-108.41371,-60.5636)">
    <circle
       cx="178.5022"
       cy="93"
       r="0.5"
       id="circle902" />
  </g>
</svg>
